<?xml version="1.0" encoding="UTF-8"?>
<svg xmlns="http://www.w3.org/2000/svg" xmlns:xlink="http://www.w3.org/1999/xlink" width="25px" height="25px" viewBox="0 0 25 25" version="1.1">
<g id="surface1">
<path style=" stroke:none;fill-rule:nonzero;fill:rgb(100%,100%,100%);fill-opacity:1;" d="M 11.613281 0.0351562 C 17.136719 -0.347656 20.800781 2.355469 22.894531 5.648438 C 23.945312 7.300781 24.972656 9.808594 24.980469 12.386719 C 24.984375 15.183594 24.078125 17.609375 22.894531 19.390625 C 21.675781 21.21875 20.105469 22.726562 18.136719 23.71875 C 14.84375 25.375 10.242188 25.421875 7.230469 23.824219 C 3.875 22.046875 1.292969 19.511719 0.332031 15.113281 C -0.0507812 13.351562 -0.09375 11.078125 0.441406 9.125 C 0.566406 8.667969 0.792969 8.183594 0.976562 7.734375 C 1.84375 5.570312 3.320312 3.691406 5.144531 2.386719 C 5.878906 1.867188 6.765625 1.34375 7.550781 1 C 8.527344 0.566406 10.167969 0.136719 11.613281 0.0351562 Z M 11.613281 0.0351562 "/>
<path style=" stroke:none;fill-rule:nonzero;fill:rgb(0%,0%,0%);fill-opacity:1;" d="M 22.089844 12.695312 C 22.089844 17.917969 17.859375 22.148438 12.640625 22.148438 C 7.417969 22.148438 3.1875 17.917969 3.1875 12.695312 C 3.1875 7.476562 7.417969 3.246094 12.640625 3.246094 C 17.859375 3.246094 22.089844 7.476562 22.089844 12.695312 Z M 22.089844 12.695312 "/>
<path style=" stroke:none;fill-rule:nonzero;fill:rgb(0%,0%,0%);fill-opacity:1;" d="M 11.613281 0.0351562 C 17.136719 -0.347656 20.800781 2.355469 22.894531 5.648438 C 23.945312 7.300781 24.972656 9.808594 24.980469 12.386719 C 24.984375 15.183594 24.078125 17.609375 22.894531 19.390625 C 21.675781 21.21875 20.105469 22.726562 18.136719 23.71875 C 14.84375 25.375 10.242188 25.421875 7.230469 23.824219 C 3.875 22.046875 1.292969 19.511719 0.332031 15.113281 C -0.0507812 13.351562 -0.09375 11.078125 0.441406 9.125 C 0.566406 8.667969 0.792969 8.183594 0.976562 7.734375 C 1.84375 5.570312 3.320312 3.691406 5.144531 2.386719 C 5.878906 1.867188 6.765625 1.34375 7.550781 1 C 8.527344 0.566406 10.167969 0.136719 11.613281 0.0351562 Z M 9.742188 0.945312 C 7.691406 1.476562 6.1875 2.429688 4.878906 3.457031 C 2.988281 4.941406 1.785156 7.007812 1.082031 9.5 C 0.296875 12.269531 0.800781 15.625 1.882812 17.730469 C 3.007812 19.917969 4.511719 21.613281 6.640625 22.808594 C 8.710938 23.972656 11.625 24.71875 14.660156 24.148438 C 17.359375 23.636719 19.40625 22.460938 21.074219 20.726562 C 23.308594 18.402344 25.105469 14.121094 23.910156 9.605469 C 23.589844 8.398438 23.171875 7.140625 22.519531 6.078125 C 22.167969 5.503906 21.648438 4.9375 21.128906 4.367188 C 19.171875 2.214844 16.003906 0.363281 11.933594 0.625 C 11.160156 0.675781 10.480469 0.753906 9.742188 0.945312 Z M 9.742188 0.945312 "/>
<path style=" stroke:none;fill-rule:nonzero;fill:rgb(100%,100%,100%);fill-opacity:1;" d="M 13.238281 24.0625 L 24.164062 13.140625 L 24.101562 13.082031 L 13.179688 24.003906 Z M 13.238281 24.0625 "/>
<path style=" stroke:none;fill-rule:nonzero;fill:rgb(100%,100%,100%);fill-opacity:1;" d="M 12.285156 23.199219 L 23.253906 12.226562 L 23.195312 12.167969 L 12.226562 23.136719 Z M 12.285156 23.199219 "/>
<path style=" stroke:none;fill-rule:nonzero;fill:rgb(100%,100%,100%);fill-opacity:1;" d="M 11.332031 22.332031 L 22.347656 11.316406 L 22.289062 11.257812 L 11.269531 22.273438 Z M 11.332031 22.332031 "/>
<path style=" stroke:none;fill-rule:nonzero;fill:rgb(100%,100%,100%);fill-opacity:1;" d="M 10.375 21.46875 L 21.441406 10.402344 L 21.382812 10.34375 L 10.316406 21.410156 Z M 10.375 21.46875 "/>
<path style=" stroke:none;fill-rule:nonzero;fill:rgb(100%,100%,100%);fill-opacity:1;" d="M 9.421875 20.601562 L 20.535156 9.488281 L 20.476562 9.429688 L 9.363281 20.542969 Z M 9.421875 20.601562 "/>
<path style=" stroke:none;fill-rule:nonzero;fill:rgb(100%,100%,100%);fill-opacity:1;" d="M 8.464844 19.738281 L 19.625 8.578125 L 19.566406 8.519531 L 8.40625 19.679688 Z M 8.464844 19.738281 "/>
<path style=" stroke:none;fill-rule:nonzero;fill:rgb(100%,100%,100%);fill-opacity:1;" d="M 7.511719 18.871094 L 18.71875 7.664062 L 18.660156 7.605469 L 7.453125 18.8125 Z M 7.511719 18.871094 "/>
<path style=" stroke:none;fill-rule:nonzero;fill:rgb(100%,100%,100%);fill-opacity:1;" d="M 6.554688 18.007812 L 17.8125 6.75 L 17.753906 6.691406 L 6.496094 17.949219 Z M 6.554688 18.007812 "/>
<path style=" stroke:none;fill-rule:nonzero;fill:rgb(100%,100%,100%);fill-opacity:1;" d="M 5.601562 17.144531 L 16.90625 5.839844 L 16.84375 5.78125 L 5.542969 17.082031 Z M 5.601562 17.144531 "/>
<path style=" stroke:none;fill-rule:nonzero;fill:rgb(100%,100%,100%);fill-opacity:1;" d="M 4.644531 16.277344 L 15.996094 4.925781 L 15.9375 4.867188 L 4.585938 16.21875 Z M 4.644531 16.277344 "/>
<path style=" stroke:none;fill-rule:nonzero;fill:rgb(100%,100%,100%);fill-opacity:1;" d="M 3.691406 15.414062 L 15.089844 4.015625 L 15.03125 3.953125 L 3.632812 15.355469 Z M 3.691406 15.414062 "/>
<path style=" stroke:none;fill-rule:nonzero;fill:rgb(100%,100%,100%);fill-opacity:1;" d="M 2.738281 14.546875 L 14.183594 3.101562 L 14.125 3.042969 L 2.675781 14.488281 Z M 2.738281 14.546875 "/>
<path style=" stroke:none;fill-rule:nonzero;fill:rgb(100%,100%,100%);fill-opacity:1;" d="M 1.78125 13.683594 L 13.277344 2.1875 L 13.21875 2.128906 L 1.722656 13.625 Z M 1.78125 13.683594 "/>
<path style=" stroke:none;fill-rule:nonzero;fill:rgb(100%,100%,100%);fill-opacity:1;" d="M 0.828125 12.816406 L 12.367188 1.277344 L 12.308594 1.21875 L 0.769531 12.757812 Z M 0.828125 12.816406 "/>
<path style=" stroke:none;fill-rule:nonzero;fill:rgb(100%,100%,100%);fill-opacity:1;" d="M 0.765625 12.929688 L 11.90625 24.070312 L 11.964844 24.011719 L 0.824219 12.871094 Z M 0.765625 12.929688 "/>
<path style=" stroke:none;fill-rule:nonzero;fill:rgb(100%,100%,100%);fill-opacity:1;" d="M 1.667969 12.011719 L 12.828125 23.175781 L 12.890625 23.117188 L 1.726562 11.953125 Z M 1.667969 12.011719 "/>
<path style=" stroke:none;fill-rule:nonzero;fill:rgb(100%,100%,100%);fill-opacity:1;" d="M 2.570312 11.09375 L 13.753906 22.28125 L 13.8125 22.222656 L 2.628906 11.035156 Z M 2.570312 11.09375 "/>
<path style=" stroke:none;fill-rule:nonzero;fill:rgb(100%,100%,100%);fill-opacity:1;" d="M 3.472656 10.179688 L 14.679688 21.386719 L 14.738281 21.328125 L 3.535156 10.121094 Z M 3.472656 10.179688 "/>
<path style=" stroke:none;fill-rule:nonzero;fill:rgb(100%,100%,100%);fill-opacity:1;" d="M 4.378906 9.261719 L 15.605469 20.492188 L 15.664062 20.433594 L 4.4375 9.203125 Z M 4.378906 9.261719 "/>
<path style=" stroke:none;fill-rule:nonzero;fill:rgb(100%,100%,100%);fill-opacity:1;" d="M 5.28125 8.347656 L 16.53125 19.597656 L 16.589844 19.535156 L 5.339844 8.289062 Z M 5.28125 8.347656 "/>
<path style=" stroke:none;fill-rule:nonzero;fill:rgb(100%,100%,100%);fill-opacity:1;" d="M 6.183594 7.429688 L 17.457031 18.703125 L 17.515625 18.640625 L 6.242188 7.371094 Z M 6.183594 7.429688 "/>
<path style=" stroke:none;fill-rule:nonzero;fill:rgb(100%,100%,100%);fill-opacity:1;" d="M 7.089844 6.511719 L 18.378906 17.804688 L 18.441406 17.746094 L 7.148438 6.453125 Z M 7.089844 6.511719 "/>
<path style=" stroke:none;fill-rule:nonzero;fill:rgb(100%,100%,100%);fill-opacity:1;" d="M 7.992188 5.597656 L 19.304688 16.910156 L 19.363281 16.851562 L 8.050781 5.539062 Z M 7.992188 5.597656 "/>
<path style=" stroke:none;fill-rule:nonzero;fill:rgb(100%,100%,100%);fill-opacity:1;" d="M 8.894531 4.679688 L 20.230469 16.015625 L 20.289062 15.957031 L 8.953125 4.621094 Z M 8.894531 4.679688 "/>
<path style=" stroke:none;fill-rule:nonzero;fill:rgb(100%,100%,100%);fill-opacity:1;" d="M 9.796875 3.765625 L 21.15625 15.121094 L 21.214844 15.0625 L 9.855469 3.707031 Z M 9.796875 3.765625 "/>
<path style=" stroke:none;fill-rule:nonzero;fill:rgb(100%,100%,100%);fill-opacity:1;" d="M 10.703125 2.847656 L 22.082031 14.226562 L 22.140625 14.167969 L 10.761719 2.789062 Z M 10.703125 2.847656 "/>
<path style=" stroke:none;fill-rule:nonzero;fill:rgb(100%,100%,100%);fill-opacity:1;" d="M 11.605469 1.933594 L 23.007812 13.332031 L 23.066406 13.273438 L 11.664062 1.871094 Z M 11.605469 1.933594 "/>
<path style=" stroke:none;fill-rule:nonzero;fill:rgb(100%,100%,100%);fill-opacity:1;" d="M 12.507812 1.015625 L 23.929688 12.4375 L 23.992188 12.378906 L 12.566406 0.957031 Z M 12.507812 1.015625 "/>
<path style=" stroke:none;fill-rule:nonzero;fill:rgb(0%,0%,0%);fill-opacity:1;" d="M 20.488281 4.421875 C 19.503906 3.4375 18.296875 2.550781 16.851562 2.015625 C 15.355469 1.457031 13.664062 0.988281 11.667969 1.160156 C 8.488281 1.429688 6.253906 2.855469 4.558594 4.527344 C 3.367188 5.695312 2.472656 7.128906 1.882812 8.804688 C 1.015625 11.261719 1.070312 14.160156 2.042969 16.664062 C 2.875 18.796875 4.234375 20.515625 6.160156 21.847656 C 7.96875 23.101562 10.566406 24.074219 13.484375 23.824219 C 17.039062 23.527344 19.636719 21.703125 21.34375 19.601562 C 21.78125 19.066406 22.214844 18.457031 22.464844 17.730469 C 22.710938 17.207031 22.832031 16.851562 22.945312 16.664062 C 23.421875 15.601562 23.671875 14.480469 23.75 13.242188 C 23.984375 9.429688 22.519531 6.449219 20.488281 4.421875 Z M 19.441406 16.035156 C 19.433594 16.050781 19.429688 16.0625 19.421875 16.078125 C 19.246094 16.582031 18.941406 17.003906 18.636719 17.375 C 17.441406 18.835938 15.625 20.101562 13.140625 20.308594 C 11.101562 20.480469 9.285156 19.804688 8.019531 18.9375 C 6.917969 18.179688 6.082031 17.246094 5.496094 16.121094 C 5.460938 16.050781 5.121094 15.269531 5.121094 15.234375 C 4.65625 13.792969 4.613281 11.476562 5.089844 10.085938 C 5.410156 9.160156 5.941406 8.15625 6.640625 7.359375 C 7.609375 6.261719 8.582031 5.558594 10.117188 5.0625 C 10.816406 4.835938 11.445312 4.601562 12.308594 4.582031 C 14.414062 4.523438 16.558594 5.46875 17.707031 6.503906 C 18.765625 7.457031 19.972656 9.308594 20.273438 11.050781 C 20.585938 12.839844 20.253906 14.585938 19.441406 16.035156 Z M 19.441406 16.035156 "/>
<path style=" stroke:none;fill-rule:nonzero;fill:rgb(100%,100%,100%);fill-opacity:1;" d="M 15.78125 17.75 C 15.261719 17.75 14.808594 17.421875 14.648438 16.933594 L 14.074219 15.175781 L 11.183594 15.175781 L 10.648438 16.917969 C 10.484375 17.417969 10.027344 17.75 9.507812 17.75 C 9.382812 17.75 9.257812 17.730469 9.136719 17.691406 C 8.515625 17.503906 8.160156 16.835938 8.351562 16.199219 L 10.789062 8.476562 C 10.949219 7.984375 11.414062 7.640625 11.921875 7.640625 L 13.21875 7.640625 C 13.730469 7.640625 14.199219 7.980469 14.351562 8.460938 L 16.917969 16.179688 C 17.121094 16.8125 16.78125 17.488281 16.160156 17.691406 C 16.035156 17.730469 15.910156 17.75 15.78125 17.75 Z M 15.78125 17.75 "/>
<path style=" stroke:none;fill-rule:nonzero;fill:rgb(0%,0%,0%);fill-opacity:1;" d="M 15.78125 17.585938 C 15.316406 17.585938 14.910156 17.292969 14.769531 16.855469 L 14.191406 15.09375 L 14.164062 15.007812 L 11.09375 15.007812 L 11.066406 15.097656 L 10.527344 16.839844 C 10.382812 17.285156 9.972656 17.582031 9.507812 17.582031 C 9.394531 17.582031 9.285156 17.566406 9.175781 17.53125 C 8.617188 17.363281 8.300781 16.761719 8.472656 16.191406 L 10.910156 8.472656 C 11.050781 8.03125 11.46875 7.726562 11.921875 7.726562 L 13.21875 7.726562 C 13.675781 7.726562 14.09375 8.027344 14.234375 8.457031 L 16.796875 16.179688 C 16.980469 16.742188 16.675781 17.351562 16.121094 17.53125 C 16.011719 17.566406 15.898438 17.585938 15.78125 17.585938 Z M 15.78125 17.835938 C 15.921875 17.835938 16.0625 17.8125 16.199219 17.769531 C 16.886719 17.542969 17.261719 16.796875 17.035156 16.101562 L 14.472656 8.378906 C 14.300781 7.847656 13.785156 7.476562 13.21875 7.476562 L 11.921875 7.476562 C 11.359375 7.476562 10.847656 7.855469 10.671875 8.394531 L 8.234375 16.117188 C 8.023438 16.820312 8.410156 17.5625 9.101562 17.769531 C 9.230469 17.8125 9.367188 17.832031 9.507812 17.832031 C 10.082031 17.832031 10.589844 17.464844 10.765625 16.914062 L 11.304688 15.171875 L 11.183594 15.257812 L 14.074219 15.257812 L 13.953125 15.171875 L 14.53125 16.933594 C 14.707031 17.472656 15.210938 17.835938 15.78125 17.835938 Z M 15.78125 17.835938 "/>
<path style=" stroke:none;fill-rule:nonzero;fill:rgb(100%,100%,100%);fill-opacity:1;" d="M 6.207031 5.179688 L 6.207031 5.175781 C 5.902344 4.761719 5.992188 4.179688 6.4375 3.851562 C 6.886719 3.523438 7.460938 3.617188 7.765625 4.03125 L 7.769531 4.035156 C 8.070312 4.453125 7.984375 5.035156 7.535156 5.363281 C 7.085938 5.691406 6.511719 5.597656 6.207031 5.179688 Z M 7.359375 4.339844 L 7.359375 4.335938 C 7.203125 4.128906 6.921875 4.054688 6.699219 4.21875 C 6.480469 4.378906 6.460938 4.664062 6.613281 4.871094 L 6.617188 4.875 C 6.769531 5.085938 7.054688 5.15625 7.273438 4.996094 C 7.496094 4.835938 7.511719 4.550781 7.359375 4.339844 Z M 7.359375 4.339844 "/>
<path style=" stroke:none;fill-rule:nonzero;fill:rgb(100%,100%,100%);fill-opacity:1;" d="M 9.140625 2.449219 L 9.597656 2.304688 L 10.878906 3.792969 L 10.367188 3.957031 L 10.144531 3.691406 L 9.488281 3.902344 L 9.460938 4.246094 L 8.964844 4.40625 Z M 9.890625 3.367188 L 9.542969 2.941406 L 9.507812 3.488281 Z M 9.890625 3.367188 "/>
<path style=" stroke:none;fill-rule:nonzero;fill:rgb(100%,100%,100%);fill-opacity:1;" d="M 11.699219 2.898438 L 11.703125 1.890625 L 12.210938 1.890625 L 12.207031 2.890625 C 12.203125 3.148438 12.335938 3.273438 12.535156 3.273438 C 12.734375 3.273438 12.867188 3.15625 12.867188 2.90625 L 12.871094 1.894531 L 13.375 1.898438 L 13.371094 2.890625 C 13.371094 3.472656 13.039062 3.726562 12.527344 3.722656 C 12.015625 3.722656 11.699219 3.460938 11.699219 2.898438 Z M 11.699219 2.898438 "/>
<path style=" stroke:none;fill-rule:nonzero;fill:rgb(100%,100%,100%);fill-opacity:1;" d="M 15.203125 2.722656 L 14.6875 2.566406 L 14.816406 2.148438 L 16.320312 2.609375 L 16.195312 3.023438 L 15.679688 2.867188 L 15.28125 4.167969 L 14.804688 4.023438 Z M 15.203125 2.722656 "/>
<path style=" stroke:none;fill-rule:nonzero;fill:rgb(100%,100%,100%);fill-opacity:1;" d="M 17.667969 3.191406 L 18.082031 3.464844 L 17.710938 4.027344 L 18.242188 4.378906 L 18.613281 3.820312 L 19.027344 4.09375 L 18.03125 5.589844 L 17.617188 5.316406 L 17.996094 4.746094 L 17.464844 4.394531 L 17.085938 4.960938 L 16.671875 4.683594 Z M 17.667969 3.191406 "/>
<path style=" stroke:none;fill-rule:nonzero;fill:rgb(100%,100%,100%);fill-opacity:1;" d="M 19.132812 19.535156 L 19.132812 19.539062 C 19.453125 19.945312 19.386719 20.53125 18.953125 20.875 C 18.515625 21.21875 17.9375 21.148438 17.621094 20.746094 L 17.617188 20.738281 C 17.296875 20.335938 17.363281 19.75 17.796875 19.40625 C 18.234375 19.0625 18.8125 19.132812 19.132812 19.535156 Z M 18.011719 20.421875 L 18.015625 20.425781 C 18.175781 20.628906 18.460938 20.691406 18.679688 20.519531 C 18.890625 20.351562 18.898438 20.066406 18.738281 19.863281 L 18.734375 19.855469 C 18.574219 19.652344 18.285156 19.59375 18.074219 19.761719 C 17.855469 19.933594 17.851562 20.21875 18.011719 20.421875 Z M 18.011719 20.421875 "/>
<path style=" stroke:none;fill-rule:nonzero;fill:rgb(100%,100%,100%);fill-opacity:1;" d="M 16.320312 22.382812 L 15.871094 22.550781 L 14.527344 21.117188 L 15.027344 20.933594 L 15.261719 21.1875 L 15.910156 20.949219 L 15.917969 20.601562 L 16.410156 20.421875 Z M 15.53125 21.5 L 15.894531 21.910156 L 15.90625 21.363281 Z M 15.53125 21.5 "/>
<path style=" stroke:none;fill-rule:nonzero;fill:rgb(100%,100%,100%);fill-opacity:1;" d="M 13.746094 22.042969 L 13.789062 23.046875 L 13.285156 23.070312 L 13.242188 22.074219 C 13.230469 21.816406 13.09375 21.699219 12.894531 21.707031 C 12.691406 21.714844 12.566406 21.839844 12.578125 22.089844 L 12.625 23.101562 L 12.117188 23.121094 L 12.074219 22.128906 C 12.050781 21.546875 12.367188 21.28125 12.878906 21.257812 C 13.386719 21.234375 13.71875 21.480469 13.746094 22.042969 Z M 13.746094 22.042969 "/>
<path style=" stroke:none;fill-rule:nonzero;fill:rgb(100%,100%,100%);fill-opacity:1;" d="M 10.234375 22.371094 L 10.757812 22.511719 L 10.644531 22.933594 L 9.121094 22.519531 L 9.234375 22.101562 L 9.753906 22.242188 L 10.109375 20.925781 L 10.589844 21.058594 Z M 10.234375 22.371094 "/>
<path style=" stroke:none;fill-rule:nonzero;fill:rgb(100%,100%,100%);fill-opacity:1;" d="M 7.777344 22.003906 L 7.351562 21.75 L 7.695312 21.171875 L 7.148438 20.84375 L 6.800781 21.421875 L 6.375 21.164062 L 7.296875 19.625 L 7.726562 19.878906 L 7.375 20.464844 L 7.921875 20.792969 L 8.273438 20.207031 L 8.699219 20.464844 Z M 7.777344 22.003906 "/>
</g>
</svg>
