<?xml version="1.0" encoding="UTF-8"?>
<svg xmlns="http://www.w3.org/2000/svg" xmlns:xlink="http://www.w3.org/1999/xlink" width="25px" height="25px" viewBox="0 0 25 25" version="1.1">
<defs>
<linearGradient id="linear0" gradientUnits="userSpaceOnUse" x1="6" y1="33" x2="235" y2="344" gradientTransform="matrix(0.0609766,0,0,0.0609766,0,0.183008)">
<stop offset="0" style="stop-color:rgb(25.490196%,81.960784%,100%);stop-opacity:1;"/>
<stop offset="1" style="stop-color:rgb(74.117647%,20.392157%,99.607843%);stop-opacity:1;"/>
</linearGradient>
<linearGradient id="linear1" gradientUnits="userSpaceOnUse" x1="194.651001" y1="8.818" x2="236.076004" y2="292.989014" gradientTransform="matrix(0.0609766,0,0,0.0609766,0,0.183008)">
<stop offset="0" style="stop-color:rgb(100%,91.764706%,51.372549%);stop-opacity:1;"/>
<stop offset="0.083" style="stop-color:rgb(100%,86.666667%,20.784314%);stop-opacity:1;"/>
<stop offset="1" style="stop-color:rgb(100%,65.882353%,0%);stop-opacity:1;"/>
</linearGradient>
</defs>
<g id="surface1">
<path style=" stroke:none;fill-rule:nonzero;fill:url(#linear0);" d="M 24.367188 3.8125 L 13.148438 23.875 C 12.917969 24.289062 12.320312 24.292969 12.085938 23.878906 L 0.644531 3.816406 C 0.390625 3.367188 0.773438 2.820312 1.28125 2.914062 L 12.511719 4.917969 C 12.585938 4.933594 12.660156 4.933594 12.730469 4.917969 L 23.726562 2.914062 C 24.234375 2.824219 24.621094 3.363281 24.367188 3.8125 Z M 24.367188 3.8125 "/>
<path style=" stroke:none;fill-rule:nonzero;fill:url(#linear1);" d="M 17.863281 0.28125 L 9.5625 1.90625 C 9.425781 1.933594 9.324219 2.046875 9.316406 2.1875 L 8.804688 10.8125 C 8.800781 10.910156 8.839844 11 8.914062 11.0625 C 8.984375 11.125 9.082031 11.148438 9.175781 11.128906 L 11.488281 10.59375 C 11.589844 10.570312 11.695312 10.601562 11.769531 10.671875 C 11.84375 10.746094 11.878906 10.851562 11.855469 10.953125 L 11.167969 14.316406 C 11.148438 14.421875 11.183594 14.53125 11.261719 14.601562 C 11.34375 14.675781 11.453125 14.699219 11.558594 14.667969 L 12.984375 14.234375 C 13.207031 14.167969 13.417969 14.363281 13.371094 14.589844 L 12.28125 19.871094 C 12.210938 20.203125 12.652344 20.382812 12.835938 20.097656 L 12.957031 19.910156 L 19.722656 6.40625 C 19.835938 6.179688 19.640625 5.921875 19.394531 5.96875 L 17.011719 6.429688 C 16.910156 6.449219 16.800781 6.414062 16.730469 6.335938 C 16.660156 6.257812 16.632812 6.148438 16.664062 6.046875 L 18.214844 0.664062 C 18.246094 0.5625 18.21875 0.449219 18.148438 0.371094 C 18.074219 0.292969 17.96875 0.257812 17.863281 0.28125 Z M 17.863281 0.28125 "/>
</g>
</svg>
