<?xml version="1.0" standalone="no"?>
<!DOCTYPE svg PUBLIC "-//W3C//DTD SVG 20010904//EN"
 "http://www.w3.org/TR/2001/REC-SVG-20010904/DTD/svg10.dtd">
<svg version="1.0" xmlns="http://www.w3.org/2000/svg"
 width="800.000000pt" height="800.000000pt" viewBox="0 0 800.000000 800.000000"
 preserveAspectRatio="xMidYMid meet">

<g transform="translate(0.000000,800.000000) scale(0.100000,-0.100000)"
fill="#000000" stroke="none">
<path d="M2 3998 c1 -2202 4 -3970 5 -3931 3 47 8 73 15 73 9 0 9 3 0 12 -16
16 -15 77 0 83 7 2 22 5 33 7 11 2 25 8 30 15 6 6 26 13 45 16 34 5 66 13 160
37 25 7 64 21 87 31 24 10 46 19 50 19 3 0 14 7 23 15 9 8 38 16 64 16 26 1
42 6 35 10 -15 9 20 29 38 22 7 -3 20 3 29 11 8 9 25 16 37 16 12 0 34 6 48
14 15 7 51 21 80 31 30 9 83 28 119 42 42 17 65 22 68 14 5 -14 32 -15 32 -1
0 6 9 10 20 10 13 0 20 7 20 19 0 22 28 30 95 30 66 -1 75 0 75 12 0 6 -14 9
-32 7 -49 -5 -43 16 8 31 43 13 48 13 61 -4 18 -25 17 -35 -4 -35 -13 0 -14
-3 -5 -12 19 -19 14 -29 -13 -22 -29 7 -32 -6 -7 -29 14 -13 21 -14 30 -5 8 8
13 4 17 -15 4 -14 4 -31 0 -36 -3 -6 1 -11 9 -11 12 0 16 -10 16 -35 0 -19 5
-35 10 -35 6 0 10 -7 10 -15 0 -8 4 -15 8 -15 4 0 12 -14 17 -32 6 -17 16 -33
23 -36 16 -5 16 28 -1 53 -16 24 -37 94 -37 123 0 11 -6 27 -14 35 -8 7 -19
46 -25 87 -7 40 -15 78 -18 84 -13 20 -17 72 -16 196 0 95 4 132 17 155 9 17
16 34 16 38 0 5 9 22 21 39 12 16 18 32 14 36 -3 4 -34 -8 -68 -25 -34 -18
-73 -35 -87 -39 -14 -3 -32 -12 -40 -19 -8 -7 -40 -20 -70 -30 -30 -10 -90
-35 -132 -56 -42 -22 -82 -39 -89 -39 -7 0 -45 -16 -85 -35 -40 -19 -77 -35
-84 -35 -6 0 -21 -7 -33 -15 -20 -13 -49 -25 -193 -79 -18 -6 -38 -17 -45 -23
-8 -6 -25 -14 -39 -17 -66 -17 -100 -30 -100 -36 0 -4 -10 -10 -22 -13 -38 -8
-128 -43 -180 -68 -10 -5 -22 -9 -28 -9 -7 0 -10 1200 -10 3680 l0 3680 3985
0 3985 0 0 -3876 0 -3876 -32 7 c-17 4 -38 14 -46 21 -7 8 -19 14 -26 14 -7 0
-25 9 -39 20 -14 11 -34 20 -45 20 -10 0 -39 11 -63 25 -24 14 -55 30 -69 36
-14 6 -32 15 -40 20 -8 4 -44 22 -80 39 -98 48 -144 73 -158 87 -7 7 -21 13
-31 13 -10 0 -83 33 -162 72 -80 40 -163 81 -184 91 -47 21 -90 42 -125 62
-14 8 -65 35 -115 60 -49 25 -97 49 -105 54 -8 5 -28 15 -45 22 -16 8 -44 24
-61 36 -17 13 -40 23 -52 23 -11 0 -27 6 -34 13 -7 7 -28 22 -45 32 -18 11
-33 22 -33 26 0 4 -10 9 -23 13 -13 3 -36 17 -51 31 -15 14 -38 28 -52 31 -14
4 -28 13 -31 20 -6 15 -33 19 -33 6 0 -5 9 -17 20 -27 11 -10 22 -33 26 -51 4
-23 12 -34 23 -34 9 0 31 -14 49 -30 18 -17 40 -30 48 -30 7 0 36 -16 63 -35
26 -19 52 -35 57 -35 9 0 26 -8 205 -94 52 -25 101 -46 107 -46 7 0 36 -16 65
-35 28 -19 58 -35 66 -35 8 0 43 -14 79 -30 35 -17 85 -38 110 -46 26 -9 52
-22 57 -29 6 -7 38 -21 70 -30 33 -10 69 -25 80 -35 11 -10 38 -25 60 -35 87
-37 145 -68 145 -76 0 -16 -22 -10 -55 15 -17 13 -53 31 -81 39 -27 8 -62 22
-79 31 -16 9 -36 16 -43 16 -7 0 -22 9 -34 20 -12 11 -32 20 -44 20 -13 0 -53
16 -91 35 -37 19 -74 35 -81 35 -12 0 -54 17 -137 55 -16 8 -37 16 -45 19 -8
4 -37 20 -65 36 -27 16 -60 29 -72 30 -12 0 -25 5 -28 11 -4 6 -39 25 -78 43
-155 71 -221 106 -244 128 -38 36 -94 81 -97 77 -2 -2 -2 -46 1 -97 5 -71 9
-92 20 -92 8 0 29 -16 46 -35 17 -19 39 -35 49 -35 9 0 25 -11 34 -24 8 -14
32 -30 52 -36 20 -7 55 -21 78 -31 22 -10 47 -19 55 -19 8 0 24 -7 35 -15 10
-8 27 -15 36 -15 9 0 18 -4 20 -8 5 -12 105 -62 124 -62 8 0 52 -18 96 -40 45
-22 86 -40 92 -40 15 0 122 -44 138 -57 7 -6 35 -13 61 -17 27 -3 55 -13 63
-21 9 -8 23 -15 31 -15 14 0 100 -23 143 -38 8 -3 20 -6 25 -7 32 -4 73 -20
97 -36 14 -11 33 -19 42 -19 9 0 24 -4 34 -9 58 -31 121 -59 144 -65 15 -3 50
-20 78 -36 28 -17 55 -30 61 -30 5 0 23 -10 39 -22 23 -16 30 -30 30 -55 0
-18 5 -33 10 -33 7 0 10 1340 10 4000 l0 4000 -4000 0 -4000 0 2 -4002z m1065
-3174 c-3 -3 -12 -4 -19 -1 -8 3 -5 6 6 6 11 1 17 -2 13 -5z m-89 -31 c-10 -2
-18 -8 -18 -12 0 -9 -45 -31 -62 -31 -12 0 29 34 52 43 8 3 22 5 30 5 10 0 9
-2 -2 -5z m-118 -47 c0 -2 -9 -6 -20 -9 -11 -3 -18 -1 -14 4 5 9 34 13 34 5z
m-70 -21 c0 -9 -64 -45 -80 -45 -17 0 49 49 68 50 6 0 12 -2 12 -5z m-165 -70
c-33 -13 -73 -30 -90 -39 -16 -9 -33 -16 -37 -16 -4 0 -36 -13 -70 -29 -35
-15 -79 -32 -98 -36 -19 -4 -39 -11 -45 -15 -16 -13 -137 -53 -185 -61 -25 -4
-55 -10 -67 -14 -16 -5 -23 -3 -23 6 0 14 46 36 125 59 22 7 44 16 49 21 6 5
27 9 48 9 36 0 88 17 88 29 0 4 8 7 18 8 9 1 51 13 92 26 41 14 100 32 130 41
30 9 62 21 70 26 8 5 24 9 35 9 11 0 -7 -11 -40 -24z m6993 -297 c39 -32 54
-58 31 -58 -5 0 -8 4 -5 9 3 4 -6 7 -19 6 -13 -2 -23 2 -22 8 1 6 -12 20 -30
31 -18 12 -32 24 -33 29 -1 18 41 4 78 -25z m270 -128 c17 -11 32 -17 32 -14
0 4 7 1 15 -6 8 -7 15 -9 15 -4 0 5 5 2 10 -6 5 -8 9 -22 9 -30 0 -10 -2 -11
-6 -2 -2 6 -13 12 -22 12 -10 0 -30 9 -44 20 -14 11 -29 20 -34 20 -4 0 -17 7
-27 15 -20 15 -20 15 0 15 10 0 34 -9 52 -20z"/>
<path d="M3806 7783 c-4 -4 -31 -10 -59 -13 -48 -5 -52 -7 -49 -29 3 -17 0
-21 -10 -15 -7 5 -22 7 -33 6 -17 -2 -17 -1 -5 7 12 8 8 11 -17 11 -27 0 -31
-3 -26 -17 5 -15 3 -16 -8 -5 -7 6 -19 12 -27 12 -12 0 -12 -3 -2 -15 10 -12
9 -15 -8 -15 -11 0 -25 -7 -32 -15 -7 -8 -16 -12 -21 -9 -5 3 -19 -2 -31 -10
-28 -20 -49 -21 -42 -1 5 12 0 12 -28 5 -18 -6 -34 -10 -36 -10 -2 0 0 -5 4
-12 4 -6 3 -8 -3 -5 -13 8 -75 -12 -68 -22 2 -5 -12 -21 -32 -37 -20 -16 -42
-35 -49 -41 -7 -7 -16 -13 -20 -13 -4 0 -13 -8 -20 -17 -11 -15 -13 -15 -13
-3 0 25 25 62 50 76 16 9 19 13 9 14 -18 0 -153 -86 -158 -101 -2 -5 -8 -6
-14 -3 -6 4 -13 2 -17 -3 -3 -6 -29 -22 -57 -36 -28 -14 -63 -39 -77 -56 -13
-16 -27 -27 -30 -24 -4 3 -14 3 -23 -1 -14 -5 -14 -9 -3 -24 7 -9 10 -14 5
-10 -4 3 -17 -3 -27 -13 -11 -11 -30 -19 -42 -18 -12 1 -42 -7 -67 -19 -25
-11 -41 -21 -37 -21 12 -1 -19 -31 -32 -31 -6 0 -23 -16 -38 -35 -15 -19 -32
-35 -37 -35 -5 0 -24 -11 -43 -26 -18 -14 -33 -21 -33 -15 0 5 5 13 10 16 6 3
10 10 10 16 0 5 -4 9 -10 9 -5 0 -10 -6 -10 -14 0 -7 -13 -19 -30 -26 -16 -7
-30 -16 -30 -21 0 -5 -11 -11 -25 -15 -14 -3 -25 -10 -25 -16 0 -5 -4 -6 -10
-3 -5 3 -10 2 -10 -3 0 -5 -10 -14 -22 -21 l-23 -12 23 5 c12 2 20 0 16 -5 -3
-5 -10 -9 -16 -9 -10 0 -77 -68 -190 -193 -29 -32 -68 -72 -85 -89 -18 -18
-33 -37 -33 -43 0 -11 -11 -27 -57 -85 -13 -15 -23 -31 -23 -34 0 -3 -16 -28
-35 -55 -19 -26 -35 -56 -35 -65 0 -9 -6 -16 -12 -16 -7 0 -28 -32 -47 -70
-18 -39 -37 -70 -41 -70 -9 0 -34 -59 -28 -66 9 -8 -31 -138 -45 -149 -14 -10
-29 -53 -33 -90 -1 -10 -7 -21 -13 -23 -14 -5 -15 -32 -1 -32 6 0 10 -7 10
-16 0 -8 -4 -13 -9 -9 -5 3 -12 -21 -16 -52 -3 -32 -10 -72 -15 -89 -14 -42
-29 -264 -24 -344 4 -66 32 -187 56 -244 7 -17 12 -40 13 -51 0 -16 5 -19 25
-16 24 3 24 2 7 -16 -20 -23 -22 -33 -4 -33 17 0 77 -58 77 -74 0 -7 -5 -17
-12 -24 -9 -9 -8 -12 5 -12 20 0 37 -38 37 -84 0 -43 6 -47 39 -29 33 19 81
10 88 -16 3 -13 11 -17 30 -13 19 4 24 2 18 -8 -5 -9 -2 -10 12 -6 19 6 20 3
16 -45 -2 -28 1 -57 7 -64 16 -20 14 -185 -3 -201 -4 -4 -7 -15 -7 -23 0 -9
-9 -24 -20 -34 -11 -9 -20 -23 -20 -30 0 -7 -20 -32 -45 -57 -52 -51 -75 -124
-51 -163 7 -12 13 -39 12 -59 -2 -40 12 -52 21 -18 3 11 9 20 14 20 5 0 14 11
21 25 10 23 62 44 75 31 3 -3 -10 -25 -29 -48 -19 -24 -40 -53 -47 -66 -7 -12
-16 -20 -20 -17 -5 2 -14 -2 -21 -10 -11 -13 -8 -15 16 -15 46 0 57 -14 61
-71 2 -29 9 -59 16 -68 25 -29 27 -39 12 -55 -14 -14 -14 -17 5 -36 23 -23 26
-50 8 -69 -11 -10 -10 -14 4 -22 13 -7 17 -20 14 -51 -4 -52 19 -95 41 -77 18
16 20 13 25 -48 4 -38 1 -56 -9 -65 -8 -6 -10 -14 -5 -17 4 -3 5 -17 1 -31 -4
-14 -7 -19 -8 -12 -1 10 -6 10 -22 1 -12 -6 -37 -9 -55 -6 -19 3 -36 2 -39 -2
-5 -9 51 -21 99 -21 16 0 49 9 73 21 41 20 43 23 42 62 0 41 -5 74 -29 192 -7
33 -13 72 -14 88 0 15 -6 27 -13 27 -7 0 -10 7 -7 15 4 8 2 15 -4 15 -5 0 -13
7 -16 16 -4 10 -2 13 7 8 8 -6 8 -3 -1 9 -8 9 -11 21 -8 26 4 5 2 12 -4 16 -5
3 -10 19 -10 36 0 16 -4 29 -10 29 -5 0 -10 8 -10 17 0 9 -9 36 -20 59 -26 54
-19 133 16 171 27 29 31 61 40 278 6 169 9 193 43 320 25 91 33 128 61 275 10
58 24 106 30 108 13 5 13 42 0 42 -22 0 -8 25 38 70 26 25 69 70 96 99 41 45
50 51 58 37 13 -23 28 -20 28 7 0 30 76 111 97 103 15 -6 53 23 53 41 1 13 34
49 53 56 9 3 17 13 17 22 0 8 6 15 14 15 16 0 30 -43 16 -48 -15 -5 -80 -70
-80 -80 0 -14 -46 -31 -69 -25 -17 4 -20 2 -15 -11 4 -11 13 -14 33 -9 14 3
27 10 29 14 2 4 26 13 53 20 37 10 55 21 67 41 9 15 25 28 35 28 15 0 17 -5
12 -28 l-6 -28 89 2 c49 1 93 4 98 6 5 3 20 1 34 -4 20 -7 22 -11 10 -18 -11
-7 -1 -10 33 -10 43 0 47 -2 47 -24 0 -31 14 -40 30 -21 9 10 9 15 1 15 -6 0
-11 5 -11 11 0 6 6 9 14 6 7 -3 19 0 26 6 10 9 11 8 6 -8 -5 -18 1 -22 43 -32
27 -6 67 -23 90 -37 22 -14 47 -26 56 -26 26 0 55 -33 55 -62 0 -19 5 -28 16
-28 11 0 15 -6 11 -19 -5 -22 7 -46 25 -46 11 0 13 -33 3 -43 -2 -2 -34 6 -71
17 -93 28 -115 31 -221 38 -114 7 -260 -23 -326 -68 -23 -16 -48 -29 -54 -29
-7 0 -19 -15 -27 -32 -8 -18 -15 -27 -15 -19 -1 10 -8 8 -26 -9 -29 -27 -33
-45 -7 -35 9 4 22 8 27 9 6 1 30 15 54 31 50 35 85 54 171 96 53 26 180 43
268 36 79 -6 166 -36 175 -61 3 -7 19 -16 36 -19 26 -6 30 -10 28 -37 -1 -16
-8 -30 -14 -30 -7 0 -13 4 -13 8 0 4 -28 13 -62 19 -35 6 -88 18 -118 27 -63
19 -275 20 -299 2 -8 -6 -23 -11 -35 -11 -12 0 -22 -8 -26 -21 -4 -15 -12 -20
-33 -19 -15 1 -25 0 -22 -3 7 -8 -28 -31 -47 -32 -10 0 -27 -9 -37 -19 -14
-14 -21 -16 -25 -8 -3 9 -7 9 -13 1 -8 -11 -42 -25 -72 -30 -18 -3 -30 -24
-24 -41 3 -7 -5 -17 -18 -22 -23 -9 -22 -10 8 -10 17 -1 33 -6 35 -12 2 -6 24
-11 50 -11 37 -1 45 -4 40 -16 -4 -11 -1 -14 11 -9 9 3 19 2 22 -3 9 -14 105
-13 105 1 0 10 19 9 115 -7 20 -3 25 -2 17 4 -7 5 -12 15 -10 22 2 8 -1 15 -7
15 -23 3 -65 29 -65 41 0 17 60 79 84 88 24 8 36 -8 36 -51 0 -25 10 -40 49
-76 36 -31 47 -47 39 -55 -14 -14 -38 -4 -31 14 3 8 -1 15 -11 15 -9 1 -24 2
-33 3 -21 1 -21 -7 -4 -51 12 -31 31 -45 31 -23 0 6 7 10 15 10 8 0 15 -6 15
-12 0 -10 3 -9 9 1 5 7 14 10 20 7 12 -8 41 16 41 33 0 6 -7 7 -17 4 -11 -4
-14 -3 -9 6 6 9 26 11 67 7 34 -3 59 -1 59 5 0 5 -8 9 -17 9 -16 1 -15 2 2 12
36 20 64 54 85 102 21 50 39 53 41 8 0 -15 3 -21 6 -14 2 6 9 12 15 12 6 0 8
-6 5 -13 -7 -17 1 -28 36 -50 15 -10 27 -24 27 -32 0 -19 -14 -19 -29 -1 -10
12 -16 12 -41 -1 -39 -19 -38 -29 3 -28 17 0 37 -2 42 -6 6 -3 37 -9 70 -12
33 -3 68 -8 77 -12 16 -6 17 -2 12 36 -5 40 -3 45 19 55 26 11 66 2 79 -19 6
-9 10 -9 17 2 12 18 24 -3 23 -40 0 -16 4 -29 9 -29 5 0 2 -11 -6 -24 -11 -17
-13 -30 -7 -47 5 -13 7 -38 5 -54 -3 -22 2 -38 16 -55 12 -14 21 -20 20 -15
-3 23 2 36 11 30 6 -4 9 -14 8 -22 -2 -9 3 -18 10 -20 7 -3 12 5 12 21 0 16 6
26 15 26 8 0 15 -5 15 -11 0 -5 -4 -7 -10 -4 -5 3 -10 0 -10 -9 0 -8 4 -16 10
-18 6 -2 6 -16 -1 -42 -8 -29 -8 -41 1 -50 9 -8 11 -6 5 12 -6 21 -4 23 13 18
15 -5 22 -1 27 13 3 10 12 22 20 25 8 3 15 12 15 21 0 8 5 15 11 15 7 0 9 10
5 26 -4 14 -3 31 3 37 11 14 9 66 -3 85 -11 18 -10 83 2 91 5 3 12 15 15 26 3
11 9 31 12 44 6 19 4 23 -9 18 -20 -8 -21 9 -1 46 17 34 6 115 -19 129 -9 5
-16 17 -16 28 0 10 -7 31 -14 47 -8 15 -17 36 -20 46 -3 9 -14 20 -23 24 -10
4 -26 17 -36 30 -11 13 -29 23 -44 23 -19 0 -24 4 -19 16 5 14 4 15 -8 5 -12
-10 -20 -9 -40 4 -14 10 -23 22 -19 28 3 5 2 7 -4 4 -5 -3 -29 7 -52 22 -24
16 -50 27 -60 24 -9 -2 -27 7 -40 21 -14 14 -36 26 -50 27 -34 1 -63 12 -61
24 2 14 -39 22 -82 17 -22 -3 -38 0 -38 5 0 13 -77 33 -96 26 -8 -3 -14 -1
-14 4 0 19 26 63 37 63 6 0 19 7 27 16 21 20 21 41 1 24 -12 -10 -15 -10 -15
4 0 9 7 16 15 16 8 0 15 3 15 8 0 14 47 62 54 55 4 -4 -3 -15 -15 -24 -12 -9
-19 -22 -17 -30 4 -10 14 -4 37 21 29 30 34 32 43 17 9 -16 11 -16 36 2 17 12
48 20 80 22 53 3 78 -6 48 -17 -9 -3 -16 -12 -16 -20 0 -17 50 -8 62 10 5 7 8
5 8 -6 0 -15 3 -15 29 -2 29 15 111 10 111 -6 0 -4 19 -7 43 -6 23 2 53 -2 66
-8 19 -8 26 -7 36 7 15 21 25 22 25 3 0 -19 67 -17 75 2 4 11 0 13 -15 9 -14
-3 -20 -1 -17 6 2 7 13 13 25 13 21 1 26 -6 23 -33 -2 -16 4 -16 32 -2 18 9
20 9 10 -2 -19 -20 -15 -31 6 -17 11 6 18 20 16 30 -4 21 -6 21 50 7 25 -6 42
-16 39 -21 -4 -7 20 -9 69 -7 l75 4 -14 -27 c-13 -25 -13 -28 1 -28 9 0 20 11
25 25 6 15 20 27 37 31 15 4 30 11 33 15 3 4 23 9 45 10 22 1 55 6 73 11 75
22 212 4 212 -28 0 -8 7 -14 15 -14 8 0 15 5 15 10 0 6 9 10 20 10 11 0 20 4
20 9 0 14 83 31 149 31 53 0 65 -4 95 -31 25 -22 41 -29 56 -24 16 5 20 2 20
-19 0 -14 4 -28 10 -31 6 -3 7 1 4 10 -3 8 -3 27 0 41 6 24 8 25 25 10 22 -20
41 -21 41 -2 0 8 5 18 11 22 8 4 9 0 4 -15 -5 -17 -2 -21 17 -21 18 0 27 -10
41 -44 10 -24 24 -52 32 -62 13 -18 14 -18 20 -1 5 11 1 25 -9 36 -14 16 -15
19 -2 24 20 8 44 -22 49 -63 3 -19 4 -6 4 30 -1 62 0 65 24 65 13 0 24 -5 24
-11 0 -14 31 -44 46 -44 7 0 10 -3 6 -6 -9 -10 13 -62 30 -68 11 -4 13 -2 9 9
-3 8 -1 15 4 15 6 0 10 -7 10 -15 0 -8 5 -15 10 -15 6 0 10 -7 10 -15 0 -8 -4
-15 -10 -15 -5 0 -10 -4 -10 -10 0 -5 10 -9 23 -7 16 1 26 -6 37 -30 8 -18 23
-35 33 -39 9 -3 15 -9 12 -14 -8 -13 6 -41 17 -34 5 3 6 20 2 37 -8 34 -8 66
0 74 2 3 14 2 25 -2 18 -5 21 -15 21 -56 0 -27 3 -48 8 -48 26 4 44 -4 54 -26
6 -13 18 -25 27 -27 10 -2 19 -22 26 -63 6 -34 15 -61 23 -61 24 -3 27 -4 16
-12 -18 -11 -5 -72 16 -72 11 0 21 12 28 33 l10 32 1 -44 c1 -36 3 -42 15 -32
11 10 16 8 21 -8 3 -12 3 -26 -1 -32 -3 -6 -1 -15 6 -19 9 -6 9 -13 1 -28 -15
-28 -14 -72 2 -72 13 0 18 -106 6 -125 -6 -9 -9 -43 -12 -127 0 -18 3 -97 8
-176 7 -123 10 -142 24 -139 9 2 14 10 12 18 -9 30 -6 62 7 66 6 3 12 -2 12
-11 0 -9 7 -16 15 -16 12 0 13 4 3 25 -6 14 -14 25 -18 25 -12 0 -6 33 9 52 8
9 18 15 23 12 13 -9 9 -24 -7 -24 -8 0 -15 -7 -15 -15 0 -20 27 -19 38 2 6 11
23 17 48 17 22 1 42 5 45 10 10 13 31 -4 25 -20 -3 -8 -1 -14 4 -14 6 0 10 5
10 10 0 6 12 10 28 10 23 1 25 3 12 13 -21 17 -25 97 -5 97 8 0 23 -13 33 -29
l18 -29 11 24 c6 14 7 26 2 30 -5 3 -9 12 -9 20 0 8 4 13 8 10 5 -3 9 17 10
44 1 49 -15 69 -25 31 -3 -11 -13 -21 -24 -24 -24 -7 -17 6 35 60 22 23 43 40
48 37 4 -3 11 13 14 36 4 22 11 43 15 46 15 9 0 24 -17 17 -12 -5 -15 -1 -11
13 3 10 9 30 13 44 3 14 15 43 25 65 10 22 19 48 21 58 2 10 8 18 13 18 6 0
18 8 28 16 24 22 29 13 37 -65 l7 -67 2 82 c0 45 8 104 16 130 9 26 23 73 32
103 9 30 19 64 24 75 21 55 31 256 20 412 -7 87 -16 167 -20 178 -5 11 -13 38
-19 60 -21 81 -74 225 -83 225 -5 0 -23 30 -41 68 -18 37 -35 69 -39 72 -14
12 -30 53 -25 66 3 8 1 14 -4 14 -19 0 -61 50 -70 82 -5 18 -20 40 -33 48 -13
8 -50 44 -82 80 -33 36 -67 68 -77 72 -10 4 -18 12 -18 17 0 5 -9 12 -20 16
-11 3 -19 10 -17 14 3 11 -82 81 -97 81 -7 0 -21 9 -31 20 -10 11 -23 20 -28
20 -5 0 -20 10 -32 23 -28 28 -92 84 -134 117 -46 37 -91 82 -91 91 0 5 -21
28 -47 51 -26 24 -75 71 -109 104 -33 34 -73 69 -88 79 -14 9 -26 23 -26 30 0
8 -8 11 -17 9 -11 -3 -34 10 -57 31 -22 19 -43 35 -47 35 -5 0 -25 11 -45 25
-20 14 -45 25 -55 25 -10 0 -34 10 -54 21 -45 27 -155 38 -191 19 -19 -11 -27
-11 -36 -2 -7 7 -28 12 -48 12 -30 -1 -33 -2 -19 -13 15 -11 15 -14 -6 -24
-19 -8 -30 -7 -55 9 -18 10 -40 17 -49 15 -13 -4 -11 -6 6 -12 13 -4 20 -11
17 -16 -3 -5 -1 -9 5 -9 16 0 41 -30 41 -50 0 -13 -5 -17 -15 -14 -11 5 -15
-1 -15 -22 0 -60 -22 -98 -33 -56 -3 9 -6 -3 -7 -28 l-2 -45 -9 49 c-4 28 -6
53 -3 58 7 12 -32 74 -62 97 -17 13 -20 21 -12 24 7 3 1 6 -14 6 -15 1 -30 -3
-33 -9 -3 -5 -15 -10 -25 -10 -11 0 -28 -7 -39 -17 -16 -13 -17 -21 -10 -42 8
-20 7 -28 -5 -37 -20 -14 -47 -90 -40 -109 4 -8 2 -15 -4 -15 -5 0 -13 -11
-16 -25 -4 -14 -12 -24 -18 -22 -7 1 -17 -8 -23 -20 -5 -13 -13 -23 -17 -23
-14 0 -8 17 12 35 14 13 17 22 10 35 -11 20 -3 61 16 76 19 15 28 60 13 69
-12 8 -30 -14 -39 -49 -4 -12 -16 -21 -35 -23 -17 -2 -25 0 -19 4 13 9 44 95
44 121 0 10 5 23 12 30 9 9 9 12 0 12 -6 0 -9 7 -5 17 5 14 1 15 -36 9 -23 -3
-51 -12 -61 -18 -23 -15 -40 -58 -40 -103 0 -39 -23 -75 -35 -55 -5 9 -4 15 3
18 7 2 12 15 12 28 0 14 5 34 10 45 13 23 2 24 -28 3 -13 -9 -30 -13 -39 -10
-9 4 -20 1 -25 -6 -5 -9 -8 -10 -8 -1 0 7 12 24 26 40 21 22 27 25 34 13 8
-13 10 -12 10 3 0 26 -19 21 -62 -19 -22 -19 -42 -33 -46 -30 -3 4 4 15 16 26
12 11 25 32 28 45 3 14 11 25 18 24 34 -4 67 3 81 18 10 9 32 17 50 17 38 1
35 12 -9 33 -17 8 -43 21 -58 29 -16 9 -37 12 -53 8 -30 -7 -28 -28 3 -32 12
-2 22 -10 22 -18 0 -10 -13 -14 -44 -14 -50 0 -76 -8 -76 -22 0 -6 14 -8 35
-4 40 8 44 -1 15 -32 -11 -12 -20 -26 -20 -32 0 -5 -8 -10 -17 -10 -14 0 -15
2 -4 9 8 5 9 11 3 15 -5 3 -15 -1 -22 -9 -7 -8 -18 -15 -24 -15 -7 0 -8 3 -1
8 12 8 14 62 3 62 -11 0 -47 -29 -85 -69 -18 -19 -42 -36 -54 -38 -11 -2 -27
-10 -35 -18 -17 -17 -34 -20 -34 -6 0 5 18 16 40 25 22 9 40 22 40 29 0 8 22
34 50 58 27 24 47 45 45 47 -8 8 -107 -53 -126 -77 -37 -46 -29 -14 10 40 38
53 61 71 109 84 12 4 22 11 22 16 0 5 28 9 62 9 67 0 73 8 12 15 -21 3 -59 9
-84 15 -54 11 -134 13 -144 3z m64 -23 c0 -5 17 -10 38 -11 l37 0 -45 -15
c-56 -17 -53 -18 -47 6 5 18 1 19 -36 14 -31 -4 -38 -3 -27 5 19 14 80 14 80
1z m-63 -66 c-3 -3 -12 -4 -19 -1 -8 3 -5 6 6 6 11 1 17 -2 13 -5z m450 -122
c-7 -18 -16 -30 -19 -26 -4 3 -4 -3 -1 -15 7 -27 19 -27 26 -1 3 11 11 20 19
19 10 0 10 -2 1 -6 -7 -2 -13 -14 -13 -26 -1 -21 -26 -65 -33 -56 -2 2 -9 18
-15 36 -11 34 -6 64 18 100 21 32 33 13 17 -25z m633 12 c0 -13 4 -24 9 -24 9
0 24 -71 16 -78 -2 -3 -10 8 -16 22 -7 15 -28 44 -48 64 l-34 37 29 6 c37 7
44 3 44 -27z m-117 -15 c10 -11 17 -23 15 -25 -6 -6 -48 26 -48 37 0 15 14 10
33 -12z m307 -5 c0 -9 -5 -14 -12 -12 -18 6 -21 28 -4 28 9 0 16 -7 16 -16z
m-347 -14 c3 -11 1 -20 -4 -20 -5 0 -9 9 -9 20 0 11 2 20 4 20 2 0 6 -9 9 -20z
m241 -35 c3 -8 1 -15 -4 -15 -6 0 -10 7 -10 15 0 8 2 15 4 15 2 0 6 -7 10 -15z
m-1814 -15 c0 -5 -4 -10 -10 -10 -5 0 -10 5 -10 10 0 6 5 10 10 10 6 0 10 -4
10 -10z m-30 -24 c0 -2 -7 -6 -15 -10 -8 -3 -15 -1 -15 4 0 6 7 10 15 10 8 0
15 -2 15 -4z m1370 -136 c0 -34 -5 -62 -12 -66 -6 -4 -8 -3 -4 4 3 6 2 13 -3
16 -6 4 -6 19 0 39 12 43 12 47 -7 47 -13 0 -14 3 -4 15 20 25 30 7 30 -55z
m-230 -119 c0 -5 -7 -12 -16 -15 -14 -5 -15 -4 -4 9 14 17 20 19 20 6z m-60
-61 c0 -5 -2 -10 -4 -10 -3 0 -8 5 -11 10 -3 6 -1 10 4 10 6 0 11 -4 11 -10z
m-1720 -40 c0 -5 -5 -10 -11 -10 -5 0 -7 5 -4 10 3 6 8 10 11 10 2 0 4 -4 4
-10z m1590 -40 c0 -5 -7 -10 -16 -10 -8 0 -12 5 -9 10 3 6 10 10 16 10 5 0 9
-4 9 -10z m-1620 -10 c0 -5 -2 -10 -4 -10 -3 0 -8 5 -11 10 -3 6 -1 10 4 10 6
0 11 -4 11 -10z m1565 -30 c34 0 40 -17 7 -18 -15 0 -48 -12 -74 -26 -27 -14
-48 -21 -48 -16 0 6 -11 10 -25 10 -15 0 -25 -6 -25 -15 0 -30 -85 -43 -245
-37 -165 6 -150 18 32 24 79 2 103 6 103 17 0 10 10 12 43 7 38 -6 46 -3 77
24 23 21 44 30 67 30 22 0 37 7 45 20 l13 21 3 -21 c2 -13 11 -20 27 -20z
m-738 -22 c-3 -8 -6 -5 -6 6 -1 11 2 17 5 13 3 -3 4 -12 1 -19z m668 -48 c3
-5 -1 -10 -10 -10 -9 0 -13 5 -10 10 3 6 8 10 10 10 2 0 7 -4 10 -10z m-65
-14 c0 -3 -4 -8 -10 -11 -5 -3 -10 -1 -10 4 0 6 5 11 10 11 6 0 10 -2 10 -4z
m-430 -14 c0 -4 -31 -8 -69 -7 -38 0 -67 3 -64 8 6 10 133 9 133 -1z m2118
-464 c18 2 32 -1 32 -7 0 -6 9 -11 20 -11 12 0 20 -7 20 -16 0 -11 -5 -14 -17
-9 -10 4 -22 8 -28 9 -5 1 -14 4 -20 7 -5 4 -22 9 -36 12 -15 4 -26 14 -26 23
0 14 2 14 11 3 7 -8 24 -13 44 -11z m210 -184 c36 -17 42 -34 13 -34 -11 0
-22 9 -26 19 -3 11 -16 22 -28 24 -12 2 -15 5 -6 6 9 0 30 -6 47 -15z m424
-74 c2 -22 0 -40 -4 -40 -5 0 -8 18 -8 40 0 22 2 40 4 40 2 0 6 -18 8 -40z
m-189 10 c3 -11 1 -18 -4 -14 -5 3 -9 12 -9 20 0 20 7 17 13 -6z m-103 -61 c0
-5 10 -9 22 -9 21 0 21 0 2 -14 -16 -13 -19 -13 -22 0 -2 8 -9 14 -15 14 -7 0
-17 11 -23 25 -11 23 -11 24 12 8 13 -8 24 -19 24 -24z m40 21 c0 -5 -4 -10
-10 -10 -5 0 -10 5 -10 10 0 6 5 10 10 10 6 0 10 -4 10 -10z m31 -50 c5 0 9
-7 9 -15 0 -8 -7 -15 -15 -15 -10 0 -15 10 -14 33 1 17 3 24 6 15 2 -10 9 -18
14 -18z m-45 -45 c8 -13 14 -32 11 -42 -4 -16 -5 -16 -6 2 -2 24 -20 49 -41
58 -12 4 -12 6 2 6 10 1 25 -10 34 -24z m144 -46 c0 -5 -4 -9 -10 -9 -5 0 -10
7 -10 16 0 8 5 12 10 9 6 -3 10 -10 10 -16z m145 -1 c13 -37 12 -102 -1 -133
-9 -22 -12 -49 -8 -74 3 -21 1 -47 -5 -59 -7 -13 -8 -37 -2 -74 22 -128 23
-148 7 -142 -9 3 -16 1 -16 -6 0 -8 -4 -7 -13 2 -8 7 -15 40 -17 73 -4 85 -4
101 10 180 19 114 26 225 16 235 -7 7 -4 10 7 10 10 0 20 -6 22 -12z m152 -10
c-3 -8 -6 -5 -6 6 -1 11 2 17 5 13 3 -3 4 -12 1 -19z m-4680 -10 c-3 -8 -6 -5
-6 6 -1 11 2 17 5 13 3 -3 4 -12 1 -19z m4263 -8 c0 -5 -8 -10 -17 -10 -15 0
-16 2 -3 10 19 12 20 12 20 0z m143 -27 c7 -41 1 -56 -10 -27 -3 10 -10 22
-15 25 -10 6 0 39 12 39 4 0 10 -17 13 -37z m-4398 7 c-3 -5 -11 -10 -16 -10
-6 0 -7 5 -4 10 3 6 11 10 16 10 6 0 7 -4 4 -10z m4193 -62 c22 -16 27 -48 9
-48 -10 0 -13 -8 -10 -24 3 -13 0 -27 -5 -30 -7 -4 -13 12 -17 41 -3 27 -7 59
-9 72 -2 14 -1 32 3 40 4 11 7 8 9 -11 2 -15 11 -33 20 -40z m500 -45 c2 -21
7 -39 12 -41 6 -2 10 -16 10 -31 0 -15 6 -33 13 -40 28 -28 8 -469 -24 -507
-5 -7 -12 -26 -14 -44 -4 -31 -11 -48 -18 -39 -2 2 5 54 15 114 29 166 28 489
0 471 -4 -2 -7 32 -7 75 -1 80 9 110 13 42z m-358 -21 c0 -14 11 -42 25 -62
14 -20 33 -68 44 -108 10 -40 23 -78 29 -85 5 -6 8 -23 7 -37 -2 -28 14 -49
33 -42 8 2 12 -8 12 -32 0 -20 -4 -36 -9 -36 -5 0 -10 -45 -13 -100 -5 -126
-24 -156 -27 -41 -1 44 -6 95 -12 113 -14 49 -11 78 7 78 8 0 13 4 10 9 -3 5
-16 7 -29 3 -20 -5 -21 -4 -8 12 11 13 12 19 3 25 -7 4 -10 15 -6 25 4 11 0
22 -15 32 -11 8 -21 21 -21 29 0 9 -6 12 -17 8 -12 -5 -14 -3 -8 8 11 16 7 69
-5 84 -5 6 -9 20 -10 30 0 11 -2 44 -5 73 -3 35 -2 51 5 47 5 -3 10 -18 10
-33z m-1256 -3 c-3 -5 -10 -7 -15 -3 -5 3 -7 10 -3 15 3 5 10 7 15 3 5 -3 7
-10 3 -15z m706 11 c12 -8 9 -10 -12 -10 -16 0 -28 5 -28 10 0 13 20 13 40 0z
m460 -12 c0 -6 8 -20 18 -31 9 -10 17 -33 17 -50 0 -18 5 -32 13 -33 23 -3 24
-4 12 -19 -14 -17 -35 -21 -24 -4 3 6 3 14 -2 18 -28 20 -66 131 -45 131 6 0
11 -5 11 -12z m379 -180 c11 2 13 -8 9 -50 -6 -61 0 -118 13 -118 5 0 9 10 9
23 0 12 5 29 10 37 8 12 10 9 10 -11 0 -15 -9 -38 -21 -53 -11 -14 -16 -26
-11 -26 5 0 9 -18 8 -40 -1 -47 -8 -51 -22 -12 -10 27 -10 27 -21 -18 -7 -25
-15 -55 -18 -67 -4 -13 -3 -23 2 -23 6 0 15 10 21 23 11 19 11 18 6 -12 -4
-19 -12 -40 -19 -47 -6 -7 -18 -33 -25 -59 -7 -25 -18 -44 -24 -42 -14 5 -9
63 9 100 8 16 17 61 21 101 6 63 4 74 -10 79 -10 4 -15 11 -11 17 3 5 1 19 -5
30 -8 16 -8 20 4 20 15 0 26 65 31 193 5 120 9 131 14 42 5 -70 9 -89 20 -87z
m-572 100 c-3 -8 -6 -5 -6 6 -1 11 2 17 5 13 3 -3 4 -12 1 -19z m-1620 6 c-3
-3 -12 -4 -19 -1 -8 3 -5 6 6 6 11 1 17 -2 13 -5z m-1363 -68 c-3 -9 -10 -16
-15 -16 -5 0 -9 -7 -9 -15 0 -8 -5 -15 -10 -15 -11 0 2 31 23 58 13 16 19 10
11 -12z m2523 18 c-3 -3 -12 -4 -19 -1 -8 3 -5 6 6 6 11 1 17 -2 13 -5z m613
-30 c0 -8 -7 -14 -15 -14 -10 0 -15 10 -15 26 0 22 2 25 15 14 8 -7 15 -19 15
-26z m40 -70 c0 -6 7 -25 16 -43 8 -17 13 -37 11 -44 -3 -7 -6 -5 -6 6 -1 9
-5 17 -11 17 -5 0 -10 9 -10 21 0 11 -4 18 -9 15 -4 -3 -13 6 -20 20 -16 36
-14 46 9 32 11 -7 20 -18 20 -24z m74 14 c11 -44 5 -65 -9 -28 -17 43 -17 50
-6 50 5 0 11 -10 15 -22z m-2869 -24 c13 -5 14 -8 3 -15 -19 -12 -25 -11 -32
6 -6 16 3 19 29 9z m3355 -14 c0 -5 -5 -10 -11 -10 -5 0 -7 5 -4 10 3 6 8 10
11 10 2 0 4 -4 4 -10z m-3515 -19 c13 -8 -87 -17 -147 -13 -27 2 -48 7 -48 11
0 8 182 11 195 2z m3055 -31 c0 -5 -4 -10 -10 -10 -5 0 -10 5 -10 10 0 6 5 10
10 10 6 0 10 -4 10 -10z m-120 -15 c0 -8 -4 -15 -10 -15 -5 0 -10 7 -10 15 0
8 5 15 10 15 6 0 10 -7 10 -15z m580 -5 c0 -5 -4 -10 -10 -10 -5 0 -10 5 -10
10 0 6 5 10 10 10 6 0 10 -4 10 -10z m-535 -29 c-3 -5 -1 -12 5 -16 5 -3 10
-14 10 -23 -1 -14 -4 -13 -20 7 -19 23 -19 41 1 41 6 0 8 -4 4 -9z m520 -1 c3
-5 1 -10 -4 -10 -6 0 -11 5 -11 10 0 6 2 10 4 10 3 0 8 -4 11 -10z m-4141 -69
c-29 -45 -34 -48 -34 -27 0 16 50 79 57 72 2 -2 -8 -23 -23 -45z m4135 -40
c-6 -28 -13 -51 -16 -51 -3 0 -3 9 0 20 3 11 1 20 -4 20 -5 0 -5 7 0 18 5 9
12 26 16 36 12 38 15 7 4 -43z m-728 -4 c-8 -8 -11 -5 -11 9 0 27 14 41 18 19
2 -9 -1 -22 -7 -28z m269 33 c0 -5 -4 -10 -10 -10 -5 0 -10 5 -10 10 0 6 5 10
10 10 6 0 10 -4 10 -10z m-3730 -47 c-11 -17 -11 -17 -6 0 3 10 6 24 7 30 0 9
2 9 5 0 3 -7 0 -20 -6 -30z m3980 17 c0 -5 -4 -10 -10 -10 -5 0 -10 5 -10 10
0 6 5 10 10 10 6 0 10 -4 10 -10z m-243 -36 c-9 -9 -27 6 -27 22 0 13 2 13 16
-1 9 -9 14 -18 11 -21z m-3754 -28 c-3 -14 -11 -27 -19 -30 -17 -6 -18 3 -4
39 12 32 29 25 23 -9z m3922 -153 c0 -30 22 -43 27 -16 2 11 6 14 10 7 8 -12
-37 -84 -52 -84 -11 0 -13 72 -4 108 8 28 18 20 19 -15z m235 27 c0 -5 -5 -10
-11 -10 -5 0 -7 5 -4 10 3 6 8 10 11 10 2 0 4 -4 4 -10z m-454 -88 c-11 -10
-15 4 -8 28 l7 25 3 -23 c2 -13 1 -26 -2 -30z m-4276 28 c0 -5 -4 -10 -10 -10
-5 0 -10 5 -10 10 0 6 5 10 10 10 6 0 10 -4 10 -10z m4292 -52 c7 -18 -2 -39
-13 -32 -12 7 -12 44 0 44 5 0 11 -6 13 -12z m158 -22 c0 -3 -4 -8 -10 -11 -5
-3 -10 -1 -10 4 0 6 5 11 10 11 6 0 10 -2 10 -4z m-3260 -92 c0 -8 -5 -12 -10
-9 -6 4 -8 11 -5 16 9 14 15 11 15 -7z m3324 -39 c-7 -17 11 -21 21 -5 5 8 11
8 19 1 7 -6 16 -7 21 -3 4 4 5 -3 2 -16 -4 -18 -2 -22 9 -18 21 8 17 -12 -5
-24 -29 -15 -40 -12 -34 10 3 11 1 20 -3 20 -5 0 -15 -9 -22 -20 -7 -11 -17
-20 -23 -20 -5 0 -7 5 -4 10 14 22 -20 8 -61 -25 -50 -41 -56 -43 -52 -12 2
12 8 22 13 22 9 -1 30 16 93 73 29 26 33 27 26 7z m12 -113 c-17 -16 -18 -16
-5 5 7 12 15 20 18 17 3 -2 -3 -12 -13 -22z m4 -107 c0 -8 -4 -15 -10 -15 -5
0 -10 7 -10 15 0 8 5 15 10 15 6 0 10 -7 10 -15z"/>
<path d="M3465 7700 c-7 -12 12 -12 40 0 18 8 17 9 -7 9 -15 1 -30 -3 -33 -9z"/>
<path d="M3960 7691 c0 -5 9 -7 20 -4 11 3 20 7 20 9 0 2 -9 4 -20 4 -11 0
-20 -4 -20 -9z"/>
<path d="M4708 7653 c7 -3 16 -2 19 1 4 3 -2 6 -13 5 -11 0 -14 -3 -6 -6z"/>
<path d="M3255 7620 c-3 -5 -1 -10 4 -10 6 0 11 5 11 10 0 6 -2 10 -4 10 -3 0
-8 -4 -11 -10z"/>
<path d="M4339 7393 c-13 -16 -12 -17 4 -4 9 7 17 15 17 17 0 8 -8 3 -21 -13z"/>
<path d="M2586 7225 c-11 -8 -17 -17 -14 -20 2 -3 13 4 23 15 21 23 18 25 -9
5z"/>
<path d="M4928 5423 c-16 -2 -28 -8 -28 -13 0 -4 16 -4 34 0 19 4 37 5 40 2 4
-3 6 0 6 6 0 12 -3 12 -52 5z"/>
<path d="M4860 5100 c-44 -9 -120 -42 -120 -52 0 -5 -9 -8 -19 -8 -18 0 -81
-78 -81 -101 0 -13 18 -11 27 4 13 20 61 37 105 37 42 0 46 -11 6 -17 -12 -2
-27 -12 -35 -22 -7 -11 -36 -33 -63 -50 -44 -27 -49 -34 -40 -50 14 -27 14
-28 -20 -23 -22 3 -30 0 -30 -11 0 -20 78 -30 145 -19 50 9 50 9 22 20 -16 7
-39 12 -53 12 -20 0 -24 5 -24 30 0 28 2 30 20 20 13 -7 20 -7 20 -1 0 6 16
13 36 17 23 4 38 14 44 28 9 23 9 23 31 -49 7 -22 18 -50 26 -62 16 -24 95
-53 146 -53 40 0 67 24 49 42 -9 9 -8 16 4 30 10 10 17 38 19 65 1 47 19 69
31 39 8 -20 44 -21 44 -1 0 22 7 19 46 -20 19 -20 39 -33 43 -30 13 7 81 -80
81 -104 0 -23 16 -29 23 -8 3 9 9 9 27 -1 29 -17 34 -11 18 24 -20 44 -78 98
-133 124 -27 13 -56 30 -63 37 -7 7 -20 13 -28 13 -8 0 -43 9 -77 21 -67 23
-173 36 -163 21 3 -6 -7 -12 -22 -15 -15 -3 -28 -1 -30 4 -2 5 -12 9 -22 9
-11 0 -19 9 -22 25 -5 22 -3 23 16 13 20 -10 20 -10 4 9 -19 20 -24 18 102 57
24 7 -52 4 -90 -4z m-140 -95 c-33 -19 -46 -19 -30 0 7 8 22 15 34 15 20 -1
20 -2 -4 -15z m90 5 c0 -5 -5 -10 -11 -10 -5 0 -7 5 -4 10 3 6 8 10 11 10 2 0
4 -4 4 -10z m-40 -10 c0 -5 -5 -10 -11 -10 -5 0 -7 5 -4 10 3 6 8 10 11 10 2
0 4 -4 4 -10z"/>
<path d="M6376 5011 c-4 -7 -5 -15 -2 -18 9 -9 19 4 14 18 -4 11 -6 11 -12 0z"/>
<path d="M3308 4912 c-10 -2 -18 -8 -18 -13 0 -13 27 -11 35 2 9 13 4 16 -17
11z"/>
<path d="M2985 4870 c4 -6 11 -8 16 -5 14 9 11 15 -7 15 -8 0 -12 -5 -9 -10z"/>
<path d="M3195 4857 c-4 -10 -5 -21 -1 -24 10 -10 18 4 13 24 -4 17 -4 17 -12
0z"/>
<path d="M3384 4795 c-10 -8 -14 -14 -9 -14 6 0 19 6 29 14 11 8 15 15 10 15
-6 0 -19 -7 -30 -15z"/>
<path d="M1838 4767 c-19 -28 -35 -277 -18 -277 5 0 10 -10 9 -22 0 -22 -1
-22 -9 -3 -6 13 -8 -9 -8 -65 0 -47 3 -76 7 -65 14 41 52 114 61 120 6 3 10
17 10 29 0 13 14 40 30 61 17 21 30 44 30 51 0 8 8 19 19 25 43 27 -23 147
-90 163 -21 4 -30 1 -41 -17z"/>
<path d="M3696 4711 c-4 -5 -2 -12 3 -15 5 -4 12 -2 15 3 4 5 2 12 -3 15 -5 4
-12 2 -15 -3z"/>
<path d="M3795 4640 c-3 -5 -2 -10 4 -10 5 0 13 5 16 10 3 6 2 10 -4 10 -5 0
-13 -4 -16 -10z"/>
<path d="M3841 4554 c0 -11 3 -14 6 -6 3 7 2 16 -1 19 -3 4 -6 -2 -5 -13z"/>
<path d="M1975 4543 c-18 -14 -18 -15 -2 -9 10 3 23 6 28 6 5 0 9 5 9 10 0 14
-12 12 -35 -7z"/>
<path d="M3808 4549 c-21 -12 -24 -39 -4 -39 7 0 16 11 18 25 3 14 5 25 4 25
0 0 -9 -5 -18 -11z"/>
<path d="M6217 4544 c-4 -4 -7 -14 -7 -23 0 -11 3 -12 11 -4 6 6 10 16 7 23
-2 6 -7 8 -11 4z"/>
<path d="M3652 4500 c0 -14 2 -19 5 -12 2 6 2 18 0 25 -3 6 -5 1 -5 -13z"/>
<path d="M3795 4480 c-9 -15 -1 -23 21 -18 15 3 16 4 1 16 -11 9 -17 10 -22 2z"/>
<path d="M6094 4456 c-3 -9 -10 -13 -15 -10 -15 9 -30 -47 -33 -116 -2 -52 3
-76 23 -117 26 -56 41 -67 41 -30 0 12 6 34 14 49 23 44 28 103 15 163 -13 60
-34 89 -45 61z"/>
<path d="M3740 4445 c0 -8 7 -15 15 -15 9 0 12 6 9 15 -4 8 -10 15 -15 15 -5
0 -9 -7 -9 -15z"/>
<path d="M3631 4436 c-7 -8 -14 -21 -15 -28 -1 -7 -5 -19 -9 -25 -6 -9 -2 -13
12 -13 12 0 21 -5 21 -11 0 -6 -9 -9 -20 -6 -16 4 -20 0 -20 -19 0 -13 -4 -24
-10 -24 -5 0 -10 -5 -10 -11 0 -6 9 -8 20 -4 11 3 20 2 20 -3 0 -14 -25 -22
-49 -15 -23 6 -28 -6 -9 -25 9 -9 7 -13 -5 -18 -9 -3 -17 -12 -17 -20 0 -17
30 -19 30 -1 0 6 5 4 11 -5 14 -25 31 -22 63 7 15 14 30 25 35 25 4 0 17 18
30 40 12 22 27 40 32 40 6 0 7 9 4 21 -4 13 0 28 12 41 10 12 13 18 6 15 -6
-4 -13 -2 -15 3 -2 6 -17 12 -33 14 -19 1 -29 7 -27 16 3 11 0 11 -12 1 -11
-10 -16 -9 -23 4 -8 14 -11 15 -22 1z m23 -31 c3 -9 0 -15 -9 -15 -8 0 -15 7
-15 15 0 8 4 15 9 15 5 0 11 -7 15 -15z m46 -35 c0 -5 -5 -10 -11 -10 -5 0 -7
5 -4 10 3 6 8 10 11 10 2 0 4 -4 4 -10z m-100 -135 c0 -8 -2 -15 -4 -15 -2 0
-6 7 -10 15 -3 8 -1 15 4 15 6 0 10 -7 10 -15z"/>
<path d="M3700 4440 c0 -5 5 -10 10 -10 6 0 10 5 10 10 0 6 -4 10 -10 10 -5 0
-10 -4 -10 -10z"/>
<path d="M3553 4183 c-14 -5 -18 -33 -5 -33 5 0 16 6 26 13 15 11 16 15 5 19
-8 3 -20 3 -26 1z"/>
<path d="M1850 4130 c0 -5 5 -10 10 -10 6 0 10 5 10 10 0 6 -4 10 -10 10 -5 0
-10 -4 -10 -10z"/>
<path d="M1860 4101 c0 -5 5 -13 10 -16 6 -3 10 -2 10 4 0 5 -4 13 -10 16 -5
3 -10 2 -10 -4z"/>
<path d="M3680 4069 c0 -10 6 -19 13 -19 8 0 7 -4 -3 -10 -10 -6 -11 -10 -2
-10 18 0 15 -31 -5 -45 -13 -9 -13 -14 -3 -20 9 -5 11 -4 6 3 -4 7 -3 12 2 12
19 0 20 -27 1 -38 -23 -15 -24 -52 -4 -107 18 -52 18 -66 0 -59 -8 4 -15 1
-15 -5 0 -7 -10 -9 -27 -5 -15 4 -33 7 -40 7 -7 0 -13 9 -13 19 0 15 -5 18
-19 13 -18 -5 -19 -2 -15 32 3 29 2 33 -5 18 -9 -19 -10 -19 -10 3 -1 12 6 33
14 46 9 13 13 31 9 40 -7 19 -40 22 -48 4 -3 -7 -3 -2 1 12 5 22 4 23 -10 12
-17 -14 -26 -6 -22 20 2 11 -2 15 -11 11 -10 -3 -14 -24 -15 -67 -1 -33 -2
-65 -4 -71 -1 -5 -3 -16 -3 -23 -1 -7 -6 -11 -11 -7 -13 7 -24 -12 -28 -49 -2
-17 -7 -34 -12 -39 -13 -13 5 -89 25 -104 11 -8 30 -11 47 -7 20 4 27 2 25 -8
-2 -9 10 -14 35 -16 20 -2 35 -7 32 -13 -4 -5 -2 -9 3 -9 6 0 13 7 16 16 8 20
26 8 26 -17 0 -13 6 -19 16 -17 11 2 17 -6 20 -25 2 -22 -3 -31 -22 -39 -15
-7 -23 -17 -19 -26 3 -7 -1 -20 -9 -28 -16 -15 -30 -19 -22 -6 9 14 -11 35
-25 26 -7 -4 -29 -9 -49 -11 -46 -5 -111 -35 -106 -49 3 -6 -9 -11 -26 -12
-16 0 -37 -7 -47 -15 -9 -8 -24 -17 -34 -20 -10 -4 -15 -11 -12 -17 3 -5 0
-10 -8 -10 -7 0 -22 -12 -34 -28 -11 -15 -39 -36 -61 -47 -45 -22 -57 -38 -43
-62 6 -11 10 -12 15 -4 4 6 4 11 -1 11 -4 0 3 7 15 16 29 20 47 9 23 -15 -10
-10 -24 -27 -30 -37 -9 -13 -14 -15 -17 -6 -8 18 -24 15 -24 -6 0 -10 -12 -23
-27 -30 l-28 -12 28 5 c15 3 38 8 52 11 15 4 25 2 25 -5 0 -6 -6 -11 -13 -11
-9 0 -14 -17 -15 -56 -1 -31 -7 -63 -13 -70 -7 -8 -9 -17 -5 -21 3 -3 -3 -12
-14 -20 -11 -8 -20 -23 -20 -34 0 -22 -11 -24 -28 -7 -9 9 -12 5 -12 -20 0
-18 -4 -32 -9 -32 -5 0 -11 -10 -14 -21 -4 -15 -11 -20 -22 -16 -9 4 -24 -2
-36 -14 -12 -12 -27 -18 -38 -14 -19 6 -23 -18 -7 -43 7 -11 4 -11 -13 0 -14
9 -19 19 -15 32 5 14 3 18 -10 13 -8 -3 -22 1 -31 9 -8 9 -15 12 -15 7 0 -4
-9 7 -20 25 -11 17 -27 32 -35 32 -17 0 -20 -21 -4 -37 8 -8 7 -13 -1 -18 -7
-5 -22 4 -37 21 -20 22 -24 24 -19 9 3 -11 1 -27 -4 -35 -9 -13 -11 -13 -20 0
-7 11 -10 12 -10 2 0 -8 9 -16 20 -19 20 -5 20 -6 -1 -24 -12 -11 -26 -19 -32
-19 -5 0 -6 -8 -3 -17 5 -15 4 -15 -9 1 -16 21 -18 18 -15 -31 1 -23 -3 -33
-13 -33 -9 0 -17 6 -20 13 -2 6 -8 8 -13 4 -5 -5 2 -17 16 -27 20 -16 22 -20
8 -20 -10 0 -18 -5 -18 -11 0 -6 9 -8 23 -4 15 4 18 3 8 -3 -8 -6 -9 -12 -3
-16 6 -4 7 -20 1 -48 -8 -31 -7 -43 3 -49 7 -5 15 -4 17 2 2 6 -2 14 -8 18 -8
5 -7 12 2 25 10 13 14 15 15 5 0 -8 4 -24 7 -36 5 -14 3 -23 -3 -23 -14 0 -12
-41 3 -60 17 -20 27 -82 17 -98 -13 -20 -39 -4 -72 45 -17 24 -30 47 -30 51 0
4 -9 13 -20 20 -11 7 -20 19 -20 27 0 7 -16 31 -35 52 -19 21 -35 46 -35 55 0
17 -17 34 -26 25 -12 -11 -15 -180 -4 -187 7 -5 6 -15 -4 -35 -8 -16 -13 -31
-11 -34 1 -3 6 -23 9 -43 5 -30 3 -38 -9 -38 -8 0 -15 -5 -15 -10 0 -6 3 -9 8
-8 10 4 12 -5 12 -48 0 -23 -4 -33 -11 -28 -6 3 -8 16 -5 29 4 15 1 25 -10 29
-14 5 -15 42 -3 113 1 4 0 15 -1 23 -5 28 -19 -75 -19 -142 -1 -59 1 -67 16
-61 14 6 15 0 9 -42 -8 -59 -21 -77 -24 -33 -4 50 -12 46 -12 -6 0 -26 4 -45
8 -42 5 3 8 -18 7 -47 -3 -69 -3 -67 -20 -67 -11 0 -14 -7 -9 -25 5 -19 2 -25
-10 -25 -9 0 -18 -12 -22 -27 -11 -50 -16 -65 -20 -60 -2 2 2 33 10 68 8 35
17 88 20 117 l7 52 -35 0 c-27 0 -34 -3 -30 -15 7 -17 -21 -21 -31 -5 -7 11
-80 3 -105 -11 -11 -6 -8 -8 13 -9 15 0 27 -4 27 -9 0 -18 -21 -22 -55 -11
-28 9 -38 8 -60 -6 -18 -11 -37 -15 -65 -11 -22 3 -40 1 -40 -3 0 -5 -15 -6
-34 -3 -28 4 -34 2 -41 -18 -4 -13 -7 -27 -6 -31 0 -4 -17 -12 -39 -18 -21 -6
-42 -15 -45 -20 -6 -10 -56 -34 -92 -45 -18 -5 -22 -13 -21 -46 0 -23 -6 -47
-16 -58 -9 -10 -16 -23 -16 -29 0 -6 -7 -18 -16 -27 -14 -13 -14 -18 -2 -32 7
-9 13 -26 14 -37 0 -12 4 -31 8 -44 6 -19 4 -24 -13 -29 -12 -3 -21 -10 -21
-15 0 -5 13 -1 30 9 30 18 38 37 20 48 -13 8 -13 35 0 35 6 0 10 -9 10 -19 0
-11 5 -23 11 -27 6 -3 9 -19 6 -34 -3 -15 -1 -32 6 -39 8 -8 7 -11 -6 -11 -9
0 -17 -5 -17 -11 0 -5 5 -7 10 -4 6 3 10 1 10 -6 0 -9 3 -9 14 0 12 10 15 7
14 -18 -1 -17 -5 -31 -10 -31 -14 0 16 -40 35 -46 11 -3 16 -12 13 -20 -3 -8
-1 -14 4 -14 6 0 10 -4 10 -10 0 -5 -7 -10 -15 -10 -20 0 -19 -12 4 -32 10 -8
21 -22 23 -29 3 -8 8 -11 12 -7 4 3 3 15 -3 26 -11 21 -5 52 10 52 5 0 9 -9 9
-19 0 -11 16 -36 35 -57 19 -20 35 -40 35 -44 0 -4 9 -15 20 -25 11 -10 20
-24 20 -31 0 -7 6 -17 13 -21 8 -4 24 -23 37 -40 13 -18 29 -33 36 -33 6 0 19
-11 28 -25 9 -13 30 -39 46 -57 17 -18 34 -37 38 -41 19 -22 130 -110 153
-122 15 -8 29 -21 32 -30 4 -8 15 -15 25 -15 10 0 33 -16 52 -35 19 -19 42
-35 52 -35 10 0 18 -4 18 -8 0 -5 15 -16 33 -25 34 -18 45 -25 120 -74 27 -18
55 -33 62 -33 6 0 31 -14 55 -31 24 -17 73 -47 109 -66 36 -19 70 -38 75 -44
6 -5 17 -9 26 -9 9 0 24 -8 33 -17 9 -10 33 -26 54 -37 21 -10 50 -25 65 -32
29 -15 51 -19 29 -5 -10 6 -14 25 -13 56 1 26 -2 53 -6 59 -5 6 -8 25 -7 41 0
17 -2 35 -7 41 -4 6 -4 24 1 41 8 28 7 30 -18 27 -14 -2 -18 -1 -8 2 9 3 17 9
17 14 0 5 -8 11 -17 13 -14 4 -12 5 5 6 20 1 21 3 10 21 -7 11 -19 18 -25 15
-18 -6 -16 3 3 22 14 14 13 18 -8 41 -17 18 -19 26 -10 29 7 3 18 16 23 30 5
14 18 27 29 30 17 5 17 7 5 20 -19 18 -19 29 0 37 17 6 21 36 5 36 -6 0 -9 3
-8 7 1 5 -4 21 -10 36 -14 34 -15 37 -3 37 5 0 12 -14 16 -30 4 -17 10 -30 15
-30 5 0 11 -14 15 -30 5 -23 12 -30 31 -30 30 0 33 30 4 37 -11 3 -20 9 -20
14 0 5 7 6 15 3 11 -4 15 1 16 17 1 17 3 19 6 7 5 -20 34 -29 78 -26 23 2 29
-1 27 -14 -2 -14 4 -16 40 -13 48 5 78 -1 78 -16 0 -5 -12 -7 -27 -3 l-28 6
24 -17 c19 -15 25 -15 32 -4 8 11 13 10 28 -8 16 -20 21 -21 31 -8 10 12 10
18 0 30 -14 17 -14 17 15 33 l20 11 -20 2 c-11 1 -28 1 -37 0 -10 -1 -18 0
-18 4 0 8 52 28 73 28 33 -1 36 -3 30 -19 -4 -12 -2 -15 8 -12 17 6 19 54 2
50 -7 -1 -13 2 -13 8 0 6 -6 9 -12 8 -8 -2 -14 9 -16 24 -3 22 0 27 12 22 9
-3 16 -12 16 -20 0 -8 9 -14 20 -14 11 0 20 7 20 15 0 8 -7 15 -15 15 -8 0
-15 5 -15 10 0 6 6 10 14 10 8 0 16 7 20 15 3 8 13 15 21 15 10 0 15 7 13 17
-2 10 -11 17 -20 17 -11 -1 -14 5 -10 18 3 14 8 16 15 9 18 -18 24 -13 26 21
4 65 7 78 24 96 10 11 15 26 11 36 -5 12 0 19 15 23 11 3 21 11 21 18 0 7 5
15 12 17 6 2 12 20 13 39 0 18 6 44 13 56 7 12 8 24 3 27 -5 3 -11 -1 -15 -9
-3 -8 -10 -15 -16 -15 -6 0 -5 8 2 21 11 17 10 22 -7 32 -11 7 -27 12 -35 12
-8 0 -14 5 -12 10 1 6 5 10 10 10 19 0 38 30 34 56 l-4 27 117 0 c146 0 174
17 43 26 -140 10 -149 12 -158 26 -6 9 0 24 16 43 26 30 29 44 15 66 -6 9 -11
10 -15 2 -4 -6 -16 -11 -27 -11 -20 0 -26 -28 -10 -46 5 -5 5 -19 0 -31 -7
-20 -12 -21 -34 -13 -15 6 -37 10 -51 10 -15 0 -24 6 -24 16 0 10 -5 14 -15
10 -8 -3 -29 -3 -45 1 l-30 6 21 18 c12 11 23 19 23 19 1 0 15 -4 32 -9 26 -7
34 -5 45 10 7 10 23 19 34 19 15 0 16 3 7 9 -14 9 -13 106 2 129 4 7 2 12 -5
12 -7 0 -9 10 -6 26 2 14 -1 31 -7 37 -15 15 -18 57 -4 57 10 0 6 76 -6 87 -3
4 -12 1 -18 -5 -7 -7 -18 -12 -26 -12 -12 0 -12 3 -2 15 10 12 10 19 1 28 -9
9 -14 9 -21 -3 -8 -12 -10 -12 -10 -1 0 7 -6 11 -12 8 -9 -3 -14 12 -15 52 -2
31 -7 57 -13 59 -5 2 -10 10 -10 18 0 9 5 12 11 9 6 -4 16 1 23 10 11 16 14
15 30 -10 13 -20 24 -26 42 -22 13 2 24 0 24 -6 0 -20 13 3 15 26 1 18 8 23
38 25 21 2 35 7 32 13 -3 5 1 6 9 3 9 -3 16 -1 16 5 0 6 -6 11 -12 11 -7 0
-22 8 -33 17 -18 14 -18 15 -2 9 12 -4 17 -2 15 6 -6 16 -20 19 -38 8 -12 -7
-12 -12 -2 -22 18 -18 15 -28 -9 -28 -11 0 -18 4 -15 9 3 5 0 9 -7 8 -6 0 -23
1 -36 1 -20 2 -22 4 -11 17 9 11 16 13 24 5 17 -17 28 -11 21 13 -5 16 -4 18
4 8 8 -13 12 -13 26 -1 16 13 16 15 0 26 -16 12 -16 14 -1 29 20 20 22 43 3
26 -15 -12 -27 -5 -27 17 0 8 6 12 14 9 10 -4 17 4 21 24 4 16 12 29 18 28 7
-1 20 1 30 6 17 7 17 9 1 26 -15 17 -15 19 1 35 16 17 16 18 -1 31 -11 8 -19
29 -21 57 -4 44 10 70 21 40 3 -8 2 -12 -4 -9 -5 3 -7 -1 -4 -9 5 -13 8 -13
25 2 20 20 16 62 -7 62 -8 0 -14 6 -14 14 0 9 7 12 20 9 12 -3 20 0 20 6 0 7
4 10 9 7 4 -3 11 25 14 61 4 37 11 71 17 77 11 11 234 13 283 3 15 -3 27 -3
27 1 0 14 195 13 262 -1 37 -8 65 -11 62 -6 -3 5 5 9 17 9 18 0 19 -2 9 -15
-10 -12 -9 -15 8 -15 21 0 37 26 22 35 -5 3 -7 12 -3 21 4 12 0 14 -20 9 -21
-6 -28 -2 -41 23 -17 32 -42 47 -52 30 -4 -7 -9 -7 -14 1 -5 8 -14 9 -33 2
-24 -9 -84 -6 -117 6 -31 12 -44 11 -78 -3 -48 -20 -132 -19 -132 1 0 9 7 18
15 21 8 4 15 12 15 20 0 8 3 14 8 14 4 0 7 25 8 55 0 44 -3 56 -18 61 -10 3
-18 10 -18 15 0 5 -7 9 -15 9 -8 0 -15 -4 -15 -10 0 -31 -80 26 -83 59 -1 15
-6 17 -29 10 -32 -9 -45 3 -23 21 10 8 12 22 8 43 -6 30 -6 31 11 14 21 -20
28 -21 44 -5 18 18 15 46 -5 51 -17 4 -17 5 0 6 21 1 22 10 0 26 -17 13 -11
51 7 40 5 -3 10 -1 10 5 0 6 11 15 25 20 23 9 25 14 25 74 0 68 6 76 56 76 20
0 24 5 24 30 0 16 -6 33 -13 37 -7 4 -21 29 -31 56 -10 26 -22 47 -28 47 -7 0
-7 4 -1 13 14 18 8 140 -8 146 -8 2 -10 -2 -6 -12 8 -21 -5 -28 -20 -11 -7 7
-9 15 -4 18 11 7 11 56 0 56 -5 0 -9 -5 -9 -11 0 -13 -42 -1 -52 15 -4 6 -8 7
-8 3 0 -5 -7 -1 -16 7 -18 19 -71 21 -76 4 -3 -8 -12 -9 -36 0 -29 10 -32 9
-32 -9z m7 -779 c-1 -20 -9 -25 -20 -13 -4 3 -2 12 4 20 15 18 18 17 16 -7z
m-42 -20 c3 -5 1 -10 -4 -10 -6 0 -11 5 -11 10 0 6 2 10 4 10 3 0 8 -4 11 -10z
m-35 -4 c0 -2 -9 -6 -20 -9 -11 -3 -20 -1 -20 4 0 5 9 9 20 9 11 0 20 -2 20
-4z m-370 -51 c0 -8 -7 -15 -15 -15 -16 0 -20 12 -8 23 11 12 23 8 23 -8z m-5
-35 c-3 -5 -12 -7 -20 -3 -21 7 -19 13 6 13 11 0 18 -4 14 -10z m715 -20 c0
-11 -2 -20 -4 -20 -2 0 -6 9 -9 20 -3 11 -1 20 4 20 5 0 9 -9 9 -20z m-715
-10 c-3 -5 -10 -10 -16 -10 -5 0 -9 5 -9 10 0 6 7 10 16 10 8 0 12 -4 9 -10z
m652 -22 c-3 -8 -6 -5 -6 6 -1 11 2 17 5 13 3 -3 4 -12 1 -19z m-664 -14 c-7
-20 -67 -51 -61 -32 3 7 11 13 19 13 8 0 13 7 12 16 -2 8 5 15 16 16 14 1 18
-3 14 -13z m-76 -96 c-3 -8 -6 -5 -6 6 -1 11 2 17 5 13 3 -3 4 -12 1 -19z
m1240 -30 c-3 -8 -6 -5 -6 6 -1 11 2 17 5 13 3 -3 4 -12 1 -19z m-1247 -42 c0
-2 -7 -7 -16 -10 -8 -3 -12 -2 -9 4 6 10 25 14 25 6z m-10 -56 c0 -5 -4 -10
-10 -10 -5 0 -10 5 -10 10 0 6 5 10 10 10 6 0 10 -4 10 -10z m140 -50 c0 -5
-5 -10 -11 -10 -5 0 -7 5 -4 10 3 6 8 10 11 10 2 0 4 -4 4 -10z m-129 -22 c1
-7 1 -19 0 -25 -1 -7 2 -13 8 -13 5 0 11 6 14 13 2 6 8 9 12 5 12 -11 -3 -38
-21 -38 -9 0 -25 9 -35 21 -14 16 -15 24 -6 35 15 17 27 18 28 2z m-113 -28
c6 0 12 -4 12 -10 0 -15 -33 -11 -55 7 -20 15 -19 15 5 9 14 -3 31 -6 38 -6z
m96 -66 c5 -14 4 -15 -9 -4 -17 14 -19 20 -6 20 5 0 12 -7 15 -16z m-404 -431
c0 -6 -8 -9 -20 -6 -22 6 -27 29 -7 36 13 4 27 -10 27 -30z m760 -125 c0 -5
-4 -8 -10 -8 -5 0 -10 10 -10 23 0 18 2 19 10 7 5 -8 10 -18 10 -22z m75 -98
c-3 -5 -10 -10 -16 -10 -5 0 -9 5 -9 10 0 6 7 10 16 10 8 0 12 -4 9 -10z
m-1274 -316 c-11 -15 -21 -24 -21 -20 0 12 33 57 37 52 3 -3 -4 -17 -16 -32z
m1419 -28 c0 -3 -4 -8 -10 -11 -5 -3 -10 -1 -10 4 0 6 5 11 10 11 6 0 10 -2
10 -4z m-2020 -86 c0 -5 -2 -10 -4 -10 -3 0 -8 5 -11 10 -3 6 -1 10 4 10 6 0
11 -4 11 -10z m90 -265 c10 -12 10 -15 -4 -15 -9 0 -16 7 -16 15 0 8 2 15 4
15 2 0 9 -7 16 -15z m1402 -410 c4 -17 1 -25 -9 -25 -8 0 -12 -4 -8 -9 3 -5 1
-12 -5 -16 -5 -3 -10 1 -10 9 0 9 -7 16 -16 16 -8 0 -13 4 -10 9 3 5 16 7 29
4 18 -5 20 -3 10 8 -17 17 -16 29 1 29 7 0 16 -11 18 -25z m-102 -64 c0 -13
-29 -8 -34 5 -3 7 2 10 15 7 10 -3 19 -9 19 -12z m259 -10 c8 -5 9 -11 3 -15
-5 -3 -15 1 -22 9 -14 16 -3 20 19 6z m-292 -63 c-3 -8 -6 -5 -6 6 -1 11 2 17
5 13 3 -3 4 -12 1 -19z m23 -42 c0 -8 -4 -17 -9 -20 -10 -7 -23 19 -14 28 11
11 23 6 23 -8z"/>
<path d="M3856 4075 c4 -8 11 -15 16 -15 6 0 5 6 -2 15 -7 8 -14 15 -16 15 -2
0 -1 -7 2 -15z"/>
<path d="M3640 4010 c0 -5 5 -10 10 -10 6 0 10 5 10 10 0 6 -4 10 -10 10 -5 0
-10 -4 -10 -10z"/>
<path d="M2629 3932 c4 -9 6 -23 4 -29 -3 -7 1 -13 9 -14 7 0 29 -2 49 -4 34
-4 36 -2 31 21 -2 14 -11 24 -21 24 -10 0 -21 3 -24 7 -4 3 -18 8 -32 9 -21 2
-23 0 -16 -14z"/>
<path d="M3250 3910 c0 -5 5 -10 10 -10 6 0 10 5 10 10 0 6 -4 10 -10 10 -5 0
-10 -4 -10 -10z"/>
<path d="M2315 3891 c-3 -11 -1 -49 5 -85 9 -47 15 -63 25 -60 11 5 13 -6 8
-50 -4 -36 -2 -56 5 -56 5 0 8 9 5 20 -3 11 0 20 6 20 6 0 11 -11 11 -24 0
-14 5 -28 10 -31 6 -3 10 -17 10 -31 0 -13 -4 -24 -10 -24 -5 0 -10 5 -10 10
0 6 -4 10 -10 10 -5 0 -10 -7 -10 -15 0 -9 9 -15 21 -15 16 0 20 -5 16 -20 -9
-33 26 -24 71 20 40 37 54 70 32 70 -5 0 -10 -8 -10 -17 -1 -17 -1 -17 -11 0
-5 9 -7 22 -4 27 3 6 -3 10 -14 10 -12 0 -21 4 -21 9 0 5 -8 7 -19 4 -10 -3
-22 0 -25 6 -4 6 0 11 9 11 12 0 15 5 11 16 -3 9 -6 20 -6 25 0 6 -5 7 -12 3
-7 -5 -8 -3 -4 5 5 7 1 18 -9 25 -11 8 -19 31 -22 63 -4 41 -10 53 -27 58 -21
8 -21 8 2 12 27 5 29 23 3 23 -11 0 -22 -9 -26 -19z"/>
<path d="M4310 3883 c-24 -9 -50 -35 -50 -50 0 -20 76 -96 88 -89 6 3 13 2 17
-3 6 -10 15 -8 68 11 23 9 27 16 27 52 0 65 -21 86 -83 85 -29 0 -59 -3 -67
-6z"/>
<path d="M2485 3810 c-3 -5 1 -10 10 -10 9 0 13 5 10 10 -3 6 -8 10 -10 10 -2
0 -7 -4 -10 -10z"/>
<path d="M2595 3813 c-20 -5 -37 -27 -41 -50 -3 -16 12 -17 21 -2 8 13 30 6
30 -9 0 -15 5 -17 33 -8 18 6 21 12 16 34 -11 45 -13 46 -59 35z"/>
<path d="M2953 3783 c-18 -6 -16 -43 1 -43 7 0 16 9 19 20 6 22 -1 30 -20 23z"/>
<path d="M2499 3775 c-1 -3 -2 -10 -3 -15 0 -6 -8 -15 -16 -20 -11 -7 -7 -10
18 -10 25 0 32 4 32 19 0 16 -28 39 -31 26z"/>
<path d="M2720 3760 c0 -5 5 -10 11 -10 5 0 7 5 4 10 -3 6 -8 10 -11 10 -2 0
-4 -4 -4 -10z"/>
<path d="M2778 3733 c7 -3 16 -2 19 1 4 3 -2 6 -13 5 -11 0 -14 -3 -6 -6z"/>
<path d="M2970 3709 c0 -5 5 -7 10 -4 6 3 10 8 10 11 0 2 -4 4 -10 4 -5 0 -10
-5 -10 -11z"/>
<path d="M3008 3703 c6 -2 18 -2 25 0 6 3 1 5 -13 5 -14 0 -19 -2 -12 -5z"/>
<path d="M2787 3650 c-11 -17 -16 -38 -13 -46 3 -8 1 -26 -5 -40 -13 -35 -6
-39 31 -24 21 9 29 18 25 28 -4 11 1 13 24 10 22 -3 31 0 34 13 3 12 0 15 -16
11 -16 -4 -19 -2 -14 12 4 10 1 19 -8 22 -8 4 -15 16 -15 28 0 15 -3 17 -9 7
-6 -9 -10 -10 -12 -2 -3 7 -12 -2 -22 -19z"/>
<path d="M3056 3661 c-4 -7 -5 -15 -2 -18 9 -9 19 4 14 18 -4 11 -6 11 -12 0z"/>
<path d="M2544 3628 c-3 -4 4 -8 15 -8 11 0 22 4 26 9 3 6 -4 9 -16 8 -11 -1
-23 -5 -25 -9z"/>
<path d="M2585 3580 c-3 -5 -1 -10 4 -10 6 0 11 5 11 10 0 6 -2 10 -4 10 -3 0
-8 -4 -11 -10z"/>
<path d="M2510 3567 c0 -20 -33 -47 -58 -47 -13 0 -22 -6 -22 -15 0 -9 9 -15
25 -15 14 0 25 4 25 10 0 5 13 2 28 -7 27 -15 40 -43 20 -43 -4 0 -8 5 -8 10
0 25 -30 7 -41 -25 -10 -27 -19 -35 -39 -35 -22 -1 -23 -2 -7 -11 10 -6 24 -8
31 -6 7 3 18 -4 24 -14 10 -16 9 -19 -8 -19 -15 0 -20 -7 -20 -25 0 -14 5 -25
11 -25 6 0 8 -8 4 -19 -5 -15 -1 -18 20 -13 16 3 25 0 25 -8 0 -25 35 -39 95
-39 55 0 58 1 41 14 -19 14 -17 15 20 15 21 0 34 4 27 8 -6 4 -15 20 -18 35
-6 24 -4 27 16 27 19 0 21 -2 10 -9 -12 -8 -9 -11 12 -16 15 -4 27 -13 27 -21
0 -8 5 -14 11 -14 7 0 9 -10 5 -26 -5 -19 -3 -25 6 -21 7 2 12 12 11 22 0 9
13 30 30 45 26 24 30 31 19 42 -7 7 -30 13 -50 13 -32 0 -37 3 -37 23 -1 26
-21 43 -43 34 -10 -3 -13 0 -10 9 3 8 11 13 17 12 6 -2 11 4 11 12 0 18 -17
20 -23 3 -3 -10 -7 -10 -20 0 -9 8 -21 11 -26 8 -5 -4 -12 -2 -16 4 -3 5 -12
10 -18 10 -8 0 -9 -2 -1 -8 6 -4 16 -17 23 -29 10 -19 9 -23 -4 -23 -8 0 -15
9 -15 19 0 10 -6 21 -14 24 -15 6 -11 47 5 47 19 0 7 25 -30 62 -40 38 -71 49
-71 25z m85 -157 c-3 -5 -12 -7 -20 -3 -21 7 -19 13 6 13 11 0 18 -4 14 -10z
m-52 -39 c3 -11 0 -27 -7 -36 -9 -13 -11 -9 -11 24 0 40 9 46 18 12z m54 13
c-3 -3 -12 -4 -19 -1 -8 3 -5 6 6 6 11 1 17 -2 13 -5z m33 -14 c0 -5 -2 -10
-4 -10 -3 0 -8 5 -11 10 -3 6 -1 10 4 10 6 0 11 -4 11 -10z m-50 -41 c0 -21
-4 -28 -12 -23 -8 5 -9 2 -5 -10 4 -10 3 -15 -3 -11 -6 3 -7 18 -3 33 3 15 6
32 6 39 0 7 4 10 9 7 4 -3 8 -19 8 -35z m-70 -29 c0 -11 -4 -20 -10 -20 -5 0
-10 9 -10 20 0 11 5 20 10 20 6 0 10 -9 10 -20z"/>
<path d="M2610 3540 c0 -5 5 -10 10 -10 6 0 10 5 10 10 0 6 -4 10 -10 10 -5 0
-10 -4 -10 -10z"/>
<path d="M3590 3524 c0 -8 5 -12 10 -9 6 3 10 10 10 16 0 5 -4 9 -10 9 -5 0
-10 -7 -10 -16z"/>
<path d="M4060 3530 c0 -5 5 -10 10 -10 6 0 10 5 10 10 0 6 -4 10 -10 10 -5 0
-10 -4 -10 -10z"/>
<path d="M2357 3483 c-4 -3 -7 -15 -7 -25 0 -13 7 -18 27 -18 20 0 24 3 16 11
-6 6 -9 18 -6 25 5 14 -18 20 -30 7z"/>
<path d="M2785 3480 c-3 -5 -1 -10 4 -10 6 0 11 5 11 10 0 6 -2 10 -4 10 -3 0
-8 -4 -11 -10z"/>
<path d="M2961 3474 c0 -11 3 -14 6 -6 3 7 2 16 -1 19 -3 4 -6 -2 -5 -13z"/>
<path d="M2705 3460 c3 -5 8 -10 11 -10 2 0 4 5 4 10 0 6 -5 10 -11 10 -5 0
-7 -4 -4 -10z"/>
<path d="M2736 3451 c-3 -5 1 -12 10 -15 20 -8 29 -1 19 13 -8 13 -22 14 -29
2z"/>
<path d="M2287 3423 c-15 -24 23 -77 41 -58 3 3 0 5 -6 5 -7 0 -12 8 -12 18 0
23 -16 47 -23 35z"/>
<path d="M2945 3399 c-11 -17 1 -21 15 -4 8 9 8 15 2 15 -6 0 -14 -5 -17 -11z"/>
<path d="M2830 3384 c0 -3 9 -19 21 -35 11 -16 18 -29 14 -29 -3 0 1 -10 10
-23 19 -30 75 -26 75 4 0 14 -7 19 -30 19 -20 0 -33 6 -37 18 -11 32 -53 69
-53 46z"/>
<path d="M2300 3340 c0 -5 5 -10 10 -10 6 0 10 5 10 10 0 6 -4 10 -10 10 -5 0
-10 -4 -10 -10z"/>
<path d="M2406 3323 c-9 -9 -7 -43 2 -43 10 0 32 21 32 31 0 10 -27 19 -34 12z"/>
<path d="M3111 3278 c1 -24 3 -27 6 -10 2 12 9 20 14 17 5 -4 9 1 9 9 0 9 -7
16 -15 16 -11 0 -15 -10 -14 -32z"/>
<path d="M2476 3241 c-4 -5 3 -7 14 -4 23 6 26 13 6 13 -8 0 -17 -4 -20 -9z"/>
<path d="M2711 3226 c-9 -10 -8 -15 4 -20 8 -3 15 -4 15 -2 0 3 3 11 6 20 8
20 -9 21 -25 2z"/>
<path d="M2623 3203 c-15 -5 -18 -43 -4 -43 9 0 26 39 19 44 -1 2 -9 1 -15 -1z"/>
<path d="M2670 3183 c0 -17 -3 -38 -6 -47 -3 -9 -2 -16 4 -16 14 0 24 59 12
78 -7 14 -9 10 -10 -15z"/>
<path d="M3071 3171 c-8 -6 -9 -11 -3 -15 6 -3 14 -1 17 5 9 14 2 20 -14 10z"/>
<path d="M2590 3129 c0 -15 5 -19 15 -15 22 8 31 -21 17 -57 -6 -17 -9 -33 -5
-36 3 -3 8 -1 10 5 2 6 15 9 28 6 23 -4 25 -2 25 37 0 22 -3 41 -7 42 -31 3
-49 10 -59 23 -15 22 -24 20 -24 -5z"/>
<path d="M2572 3070 c0 -19 2 -27 5 -17 2 9 2 25 0 35 -3 9 -5 1 -5 -18z"/>
<path d="M2928 3093 c7 -3 16 -2 19 1 4 3 -2 6 -13 5 -11 0 -14 -3 -6 -6z"/>
<path d="M3020 3070 c0 -24 16 -34 24 -15 3 8 7 18 8 22 2 3 -5 7 -14 9 -12 1
-18 -4 -18 -16z"/>
<path d="M2995 3030 c-3 -5 -3 -10 2 -11 4 -1 -3 -4 -17 -8 -19 -6 -24 -13
-22 -30 2 -18 -2 -22 -15 -19 -14 4 -18 -2 -20 -27 -1 -30 1 -31 33 -31 19 1
34 2 34 3 0 1 -5 14 -12 29 -10 22 -10 28 4 38 9 7 20 24 23 39 7 27 2 36 -10
17z"/>
<path d="M2631 3008 c0 -7 4 -22 9 -33 8 -18 9 -18 10 5 1 23 2 24 14 7 13
-16 14 -16 20 -1 8 20 8 19 -26 28 -20 4 -28 3 -27 -6z"/>
<path d="M2778 3015 c-3 -3 -3 -17 0 -31 4 -20 10 -25 26 -22 17 4 21 -1 22
-24 1 -20 -3 -28 -12 -24 -7 3 -16 1 -19 -4 -7 -12 5 -40 18 -40 6 0 7 3 4 7
-9 9 22 43 40 43 14 0 17 12 6 24 -4 4 -8 13 -9 19 0 7 -2 19 -2 27 -3 22 -42
23 -42 2 -1 -13 -4 -12 -13 6 -7 12 -16 20 -19 17z"/>
<path d="M4480 2961 c0 -6 5 -11 10 -11 6 0 10 -6 10 -12 1 -7 35 -29 76 -48
41 -19 82 -43 91 -52 20 -22 43 -23 43 -3 0 8 -8 33 -17 56 -18 40 -19 41 -62
36 -34 -4 -47 -1 -63 15 -10 10 -29 18 -41 16 -12 -1 -28 1 -34 5 -8 5 -13 4
-13 -2z m85 -31 c3 -5 -1 -10 -10 -10 -9 0 -13 5 -10 10 3 6 8 10 10 10 2 0 7
-4 10 -10z"/>
<path d="M2540 2949 c0 -5 5 -7 10 -4 6 3 10 8 10 11 0 2 -4 4 -10 4 -5 0 -10
-5 -10 -11z"/>
<path d="M2650 2934 c0 -9 5 -14 12 -12 18 6 21 28 4 28 -9 0 -16 -7 -16 -16z"/>
<path d="M2614 2838 c1 -30 19 -32 33 -3 10 23 9 25 -12 25 -17 0 -22 -5 -21
-22z"/>
<path d="M2905 2850 c3 -5 10 -10 16 -10 5 0 9 5 9 10 0 6 -7 10 -16 10 -8 0
-12 -4 -9 -10z"/>
<path d="M2550 2840 c0 -5 5 -10 10 -10 6 0 10 5 10 10 0 6 -4 10 -10 10 -5 0
-10 -4 -10 -10z"/>
<path d="M4105 2670 c4 -6 11 -8 16 -5 14 9 11 15 -7 15 -8 0 -12 -5 -9 -10z"/>
<path d="M3694 2432 c-6 -4 -13 -14 -16 -23 -5 -12 0 -14 24 -11 19 3 28 9 26
20 -4 18 -19 25 -34 14z"/>
<path d="M2640 2407 c0 -7 7 -22 15 -33 13 -17 14 -16 4 14 -11 33 -19 41 -19
19z"/>
<path d="M3742 2273 c5 -26 38 -29 38 -4 0 15 -6 21 -21 21 -14 0 -19 -5 -17
-17z"/>
<path d="M3592 2191 l-21 -29 25 12 c13 6 24 19 24 29 0 23 -3 22 -28 -12z"/>
<path d="M3894 2115 c-10 -25 4 -45 31 -45 21 0 25 5 25 30 0 25 -4 30 -25 30
-14 0 -28 -7 -31 -15z"/>
<path d="M5342 1958 c-30 -30 8 -195 74 -317 l46 -84 -4 -94 c-2 -59 -7 -97
-15 -101 -7 -4 -13 -25 -15 -45 -1 -21 -8 -43 -15 -49 -7 -5 -23 -42 -35 -81
-15 -46 -29 -72 -40 -75 -12 -3 -18 -14 -18 -32 0 -15 -7 -30 -15 -33 -8 -4
-21 -22 -29 -41 -8 -19 -24 -41 -35 -48 -12 -7 -21 -18 -21 -24 0 -5 -10 -21
-22 -34 -13 -14 -22 -27 -21 -30 1 -3 -30 -37 -68 -75 -38 -38 -69 -73 -69
-77 0 -9 -102 -108 -112 -108 -5 0 -36 -29 -71 -64 -34 -35 -72 -67 -84 -70
-11 -4 -24 -13 -27 -21 -3 -8 -13 -15 -21 -15 -17 0 -45 -23 -45 -37 0 -4 -11
-13 -25 -20 -18 -8 -25 -8 -25 0 0 6 -7 1 -16 -11 -8 -12 -22 -22 -30 -22 -8
0 -13 -6 -12 -13 2 -6 -3 -11 -10 -9 -8 1 -16 -6 -19 -16 -3 -12 -20 -24 -45
-31 -32 -10 -37 -15 -28 -26 10 -12 8 -16 -6 -21 -62 -20 -104 -69 -104 -121
0 -22 3 -25 29 -21 22 3 31 0 34 -14 3 -10 1 -21 -4 -24 -5 -3 -9 2 -9 10 0
18 -50 19 -62 1 -5 -6 -8 -6 -8 3 0 20 -28 14 -41 -9 -10 -20 -9 -21 15 -15
14 3 26 4 26 0 0 -10 -26 -32 -46 -37 -10 -3 23 -5 74 -5 71 0 92 3 92 13 0
21 45 65 66 65 14 0 15 -3 6 -12 -21 -21 -13 -28 35 -28 42 0 45 1 28 14 -18
13 -18 14 1 39 12 16 27 25 39 23 11 -2 14 -1 8 1 -18 6 -16 22 3 30 9 3 20 0
24 -7 6 -9 11 -7 19 9 6 11 22 23 35 27 13 3 26 14 29 25 3 11 20 24 37 31 22
7 28 13 19 19 -14 9 0 32 36 59 11 8 32 26 47 41 33 32 60 40 76 22 15 -15 42
-18 42 -3 0 6 9 10 20 10 20 0 80 52 80 70 0 13 -16 13 -41 0 -10 -6 -19 -8
-19 -5 0 21 97 87 123 84 26 -3 47 2 47 11 0 5 -7 7 -15 4 -8 -4 -15 -1 -15 5
0 6 5 11 10 11 6 0 10 7 10 15 0 8 5 15 10 15 6 0 10 -7 10 -15 0 -21 13 -19
35 5 24 27 45 25 46 -2 0 -22 1 -22 9 -3 4 11 6 30 3 43 -3 13 0 22 7 22 7 0
10 -7 6 -16 -4 -10 -1 -14 6 -12 7 3 14 12 16 21 4 22 -26 22 -56 1 -28 -19
-48 -9 -26 13 9 9 32 17 52 19 21 2 40 3 45 3 4 1 7 6 7 12 0 7 -10 9 -25 5
-14 -4 -25 -3 -25 2 0 13 48 32 64 26 25 -9 60 36 62 80 2 23 3 43 3 45 1 2 9
-3 19 -11 9 -9 24 -18 32 -21 12 -4 11 -6 -2 -6 -17 -1 -26 -21 -10 -21 27 0
44 28 40 64 -4 32 -1 40 18 48 12 6 25 20 28 31 4 17 11 19 40 14 20 -3 36 -2
36 4 0 5 -7 9 -16 9 -13 0 -12 5 5 29 27 38 27 59 -1 64 -19 4 -18 5 6 6 23 1
27 5 23 21 -3 11 -1 20 4 20 5 0 9 9 9 20 0 10 10 29 22 40 17 16 20 23 10 29
-7 4 -10 15 -7 23 3 8 -1 23 -11 32 -15 16 -14 18 15 29 17 6 31 17 31 25 0 7
7 15 15 18 8 4 15 16 15 28 0 20 -4 22 -32 19 -24 -3 -29 -2 -19 5 8 6 11 17
8 26 -9 22 2 46 19 46 11 0 14 10 10 40 -3 22 -1 40 5 40 7 0 -1 21 -19 50 -2
2 -7 -2 -12 -10 -7 -11 -10 -3 -10 28 0 24 5 42 11 42 6 0 9 -9 6 -20 -6 -22
3 -26 20 -9 13 13 6 39 -11 39 -6 0 -20 23 -31 51 -11 28 -26 54 -32 56 -7 3
-13 11 -13 18 0 7 -6 16 -12 18 -10 4 -10 6 0 6 7 1 15 -6 18 -14 7 -16 54
-21 54 -6 0 12 -63 61 -78 61 -21 0 -68 33 -94 68 -25 32 -28 33 -28 13 0 -20
-4 -22 -27 -16 -16 3 -41 20 -58 37 -44 45 -90 59 -113 36z m227 -124 c3 -16
1 -17 -13 -5 -19 16 -21 34 -3 29 6 -3 14 -13 16 -24z m75 -30 c10 -25 1 -27
-19 -4 -15 17 -16 20 -3 20 9 0 19 -7 22 -16z m34 -626 c1 -28 0 -30 -9 -15
-6 10 -8 25 -5 33 8 21 12 17 14 -18z m-27 -41 c-8 -8 -11 -7 -11 4 0 20 13
34 18 19 3 -7 -1 -17 -7 -23z m19 -24 c0 -1 -5 -14 -12 -28 -14 -31 -33 -27
-34 7 -1 21 3 25 22 24 13 0 24 -2 24 -3z m-112 -183 c-7 -11 -15 -15 -17 -9
-2 6 3 15 10 20 20 12 21 11 7 -11z m-38 -85 c0 -9 -6 -12 -15 -9 -8 4 -15 10
-15 15 0 5 7 9 15 9 8 0 15 -7 15 -15z m-87 -73 c-6 -24 -18 -28 -29 -10 -4 6
1 17 11 24 23 17 26 14 18 -14z m-422 -371 c-7 -12 -17 -18 -26 -15 -22 9 -18
23 8 33 28 11 31 8 18 -18z m-476 -141 c-3 -5 -15 -10 -26 -10 -10 0 -19 5
-19 10 0 6 12 10 26 10 14 0 23 -4 19 -10z m140 -79 c3 -5 2 -12 -3 -15 -5 -3
-9 1 -9 9 0 17 3 19 12 6z m-265 -17 c0 -8 -4 -12 -10 -9 -5 3 -10 10 -10 16
0 5 5 9 10 9 6 0 10 -7 10 -16z m201 -17 c-10 -9 -11 -8 -5 6 3 10 9 15 12 12
3 -3 0 -11 -7 -18z m-34 -33 c-3 -3 -12 -4 -19 -1 -8 3 -5 6 6 6 11 1 17 -2
13 -5z m-182 -64 c-3 -5 -16 -10 -28 -10 -18 0 -19 2 -7 10 20 13 43 13 35 0z"/>
<path d="M1845 1910 c-3 -5 -1 -10 4 -10 6 0 11 5 11 10 0 6 -2 10 -4 10 -3 0
-8 -4 -11 -10z"/>
<path d="M1627 1723 c-4 -3 -7 -13 -7 -22 1 -13 3 -13 11 2 11 19 8 33 -4 20z"/>
<path d="M3590 1695 c0 -8 4 -15 10 -15 5 0 7 7 4 15 -4 8 -8 15 -10 15 -2 0
-4 -7 -4 -15z"/>
<path d="M1500 1620 c0 -5 5 -10 11 -10 5 0 7 5 4 10 -3 6 -8 10 -11 10 -2 0
-4 -4 -4 -10z"/>
<path d="M1545 1500 c-9 -15 4 -30 26 -30 23 0 26 25 3 34 -21 8 -22 8 -29 -4z"/>
<path d="M5796 1503 c-11 -11 -6 -23 9 -23 8 0 15 4 15 9 0 13 -16 22 -24 14z"/>
<path d="M1593 1445 c-3 -9 -3 -18 -1 -21 3 -3 8 4 11 16 6 23 -1 27 -10 5z"/>
<path d="M1481 1414 c0 -11 3 -14 6 -6 3 7 2 16 -1 19 -3 4 -6 -2 -5 -13z"/>
<path d="M1655 1387 c9 -27 54 -72 63 -62 4 4 -3 15 -15 25 -13 10 -23 25 -23
33 0 8 -7 18 -16 21 -12 5 -14 1 -9 -17z"/>
<path d="M1531 1384 c0 -11 3 -14 6 -6 3 7 2 16 -1 19 -3 4 -6 -2 -5 -13z"/>
<path d="M1610 1369 c0 -6 -7 -9 -15 -5 -17 6 -18 -8 -5 -39 8 -19 9 -19 9 -1
1 11 8 28 18 38 9 11 11 18 5 18 -7 0 -12 -5 -12 -11z"/>
<path d="M1542 1335 c0 -16 2 -22 5 -12 2 9 2 23 0 30 -3 6 -5 -1 -5 -18z"/>
<path d="M1490 1330 c0 -5 5 -10 11 -10 5 0 7 5 4 10 -3 6 -8 10 -11 10 -2 0
-4 -4 -4 -10z"/>
<path d="M1606 1304 c-4 -9 -4 -19 -2 -21 8 -8 26 8 26 23 0 19 -16 18 -24 -2z"/>
<path d="M1640 1301 c0 -6 5 -13 10 -16 6 -3 10 1 10 9 0 9 -4 16 -10 16 -5 0
-10 -4 -10 -9z"/>
<path d="M1546 1283 c-7 -18 20 -63 42 -71 7 -2 12 6 13 20 l0 23 10 -24 c8
-20 14 -22 44 -17 35 7 65 -8 65 -33 0 -6 7 -8 15 -5 10 4 15 0 15 -15 0 -12
6 -21 16 -21 8 0 22 -7 30 -15 14 -13 12 -15 -15 -15 -24 0 -31 -4 -31 -19 0
-11 7 -27 16 -35 17 -18 39 -22 29 -6 -3 6 1 10 9 10 12 0 16 11 16 45 0 34
-4 45 -15 45 -9 0 -24 13 -33 30 -9 16 -25 30 -36 30 -13 0 -17 5 -13 20 4 15
0 20 -14 20 -10 0 -19 -4 -19 -10 0 -5 -5 -10 -11 -10 -6 0 -9 7 -5 15 6 17
-9 21 -19 5 -4 -6 -13 -7 -24 -1 -10 6 -27 7 -39 4 -18 -4 -22 -1 -22 21 0 29
-14 35 -24 9z"/>
<path d="M1500 1276 c0 -8 5 -18 10 -21 6 -3 10 1 10 9 0 8 -4 18 -10 21 -5 3
-10 -1 -10 -9z"/>
<path d="M1812 1224 c-7 -14 -10 -29 -7 -34 4 -6 45 -22 45 -17 0 1 -6 19 -13
40 l-14 37 -11 -26z"/>
<path d="M1521 1214 c0 -11 3 -14 6 -6 3 7 2 16 -1 19 -3 4 -6 -2 -5 -13z"/>
<path d="M1480 1195 c0 -9 6 -12 15 -9 8 4 12 10 9 15 -8 14 -24 10 -24 -6z"/>
<path d="M1658 1199 c-10 -6 -18 -6 -18 -2 0 4 -9 -5 -19 -20 -10 -16 -22 -29
-27 -29 -5 0 -15 -3 -22 -5 -7 -3 -21 -3 -32 0 -11 3 -22 2 -25 -3 -9 -15 28
-35 64 -35 31 0 36 -3 34 -22 -2 -15 3 -23 13 -23 13 0 15 -6 9 -27 -8 -35
-27 -48 -40 -27 -5 8 -25 32 -42 52 -18 20 -33 40 -33 45 0 4 -11 7 -25 7 -22
0 -25 -4 -25 -35 0 -40 2 -41 35 -19 23 15 24 15 31 -10 7 -29 -9 -56 -33 -56
-9 0 -11 -5 -7 -12 11 -17 5 -80 -8 -93 -6 -7 -9 -2 -8 15 4 45 0 61 -11 54
-6 -3 -9 -23 -7 -44 3 -34 0 -39 -26 -48 -36 -14 -46 -8 -46 24 0 14 -4 34
-10 44 -7 14 -5 19 10 23 19 5 24 -6 23 -50 -1 -24 27 -13 33 14 5 17 2 30 -8
37 -8 6 -17 19 -21 29 -9 23 -27 22 -27 -3 0 -14 -7 -20 -23 -20 -15 0 -23 -6
-23 -17 -1 -10 -3 -25 -5 -33 -2 -9 4 -16 18 -18 15 -2 24 -13 28 -33 7 -29
33 -89 40 -89 2 0 1 8 -2 18 -2 10 3 25 12 32 20 17 86 15 100 -3 6 -7 17 -12
25 -12 10 0 14 -8 12 -22 -2 -12 2 -24 8 -28 13 -8 13 -25 0 -25 -5 0 -12 11
-16 25 -8 33 -21 32 -22 -2 -1 -38 17 -93 30 -93 6 0 8 -7 4 -15 -7 -18 10
-20 17 -2 4 9 8 8 16 -3 15 -21 14 -24 -16 -37 -19 -9 -30 -10 -40 -2 -10 9
-13 5 -13 -20 0 -36 28 -44 37 -11 9 34 33 19 48 -30 4 -14 16 -33 26 -43 21
-20 25 -37 8 -37 -5 0 -7 -5 -4 -11 4 -6 14 -8 22 -5 10 4 14 -1 13 -17 -3
-33 10 -67 26 -67 8 0 14 6 14 14 0 8 6 17 13 20 6 3 0 3 -15 0 -21 -5 -28 -2
-28 10 0 10 9 16 25 16 20 0 25 5 25 25 0 34 26 22 34 -16 4 -19 12 -29 24
-29 24 0 34 -10 23 -24 -4 -6 -10 -23 -13 -37 -4 -21 -1 -25 13 -22 19 5 59
-25 59 -45 0 -7 5 -10 10 -7 14 9 12 -9 -2 -24 -11 -10 -8 -12 14 -9 15 2 31
8 35 13 4 4 3 6 -2 2 -13 -7 -56 55 -55 79 0 11 1 31 1 46 1 24 4 26 20 17 23
-12 25 -39 4 -39 -19 0 -19 -19 0 -26 8 -4 12 -10 9 -15 -3 -5 4 -9 14 -9 23
0 46 -25 37 -40 -3 -5 1 -20 9 -32 9 -12 16 -35 16 -49 0 -22 4 -26 20 -22 14
4 20 0 20 -10 0 -8 -5 -17 -11 -19 -6 -2 -5 -14 5 -33 9 -17 16 -36 16 -42 0
-7 11 -13 25 -13 19 0 25 -5 25 -21 0 -15 4 -19 16 -15 9 3 20 6 25 6 16 0 10
38 -11 72 -11 18 -20 40 -20 48 0 26 32 -15 56 -72 16 -38 28 -54 44 -56 18
-3 21 0 15 18 -5 15 -4 20 4 16 7 -4 11 1 11 13 0 12 -4 21 -10 21 -5 0 -10 5
-10 10 0 6 6 10 13 10 7 0 19 -20 26 -45 10 -33 18 -45 33 -45 16 0 18 4 12
23 -10 33 -10 45 1 49 6 2 11 -11 13 -29 2 -18 10 -34 20 -38 14 -5 15 -4 5 6
-19 19 -16 29 7 29 14 0 20 -6 18 -17 -3 -16 7 -18 81 -21 83 -3 84 -2 68 16
-17 19 -17 19 18 8 19 -6 35 -14 35 -18 0 -5 16 -8 35 -8 25 0 35 4 35 16 0
14 2 14 16 -1 17 -17 66 -13 72 6 6 15 32 10 32 -6 0 -18 21 -20 38 -3 8 8 15
8 27 -2 13 -11 15 -9 13 11 -4 31 26 33 30 1 3 -18 10 -22 43 -22 22 0 39 5
39 11 0 6 9 9 20 6 11 -3 20 -1 20 4 0 14 27 11 44 -6 16 -17 56 -20 56 -5 0
6 -6 10 -12 10 -22 0 -94 69 -82 77 9 6 8 12 -2 21 -15 13 -18 9 -14 -22 1
-13 -3 -17 -14 -13 -9 4 -15 3 -14 -1 2 -12 -20 -60 -31 -66 -13 -8 -7 44 8
72 13 24 14 35 4 29 -12 -8 -9 53 2 61 6 4 12 18 13 32 4 21 2 22 -12 11 -9
-7 -16 -20 -16 -27 0 -8 -3 -14 -8 -14 -13 0 -39 35 -34 49 2 7 -5 15 -17 18
-12 3 -21 12 -21 19 0 8 -4 14 -9 14 -5 0 -16 3 -25 6 -23 9 -20 -22 4 -46 11
-11 20 -28 20 -37 0 -15 -2 -14 -14 3 -8 10 -18 19 -23 20 -26 3 -40 17 -36
37 4 20 3 21 -10 4 -23 -27 -44 -20 -57 18 -7 20 -22 43 -35 51 -15 10 -21 21
-18 34 7 26 33 26 40 0 3 -11 12 -20 20 -20 8 0 11 5 7 11 -3 6 0 16 7 21 10
6 6 7 -11 2 -22 -6 -23 -5 -12 9 8 9 9 18 3 21 -5 3 -11 1 -13 -6 -3 -9 -9 -8
-22 5 -22 22 -25 21 -19 -3 6 -21 -20 -29 -32 -10 -5 8 -11 8 -20 0 -10 -8
-21 -4 -45 19 -30 27 -31 30 -14 41 17 10 16 11 -6 6 -14 -3 -28 -6 -32 -6 -9
0 20 -56 37 -70 8 -7 15 -19 15 -28 0 -9 -10 -3 -28 17 -15 18 -38 33 -50 34
-23 1 -31 17 -9 17 7 1 3 8 -8 18 -27 23 -66 87 -58 95 3 4 -3 7 -15 7 -13 0
-22 -6 -22 -15 0 -18 -16 -20 -26 -4 -3 6 -1 15 6 19 19 11 -5 48 -36 56 -23
6 -26 11 -21 39 4 23 1 32 -9 32 -8 0 -14 -7 -14 -14 0 -28 -44 -9 -60 25 -15
32 -16 32 -33 12 -14 -17 -15 -20 -2 -20 21 0 31 -30 14 -41 -11 -7 -12 -12
-2 -28 8 -13 9 -22 3 -26 -6 -4 -13 1 -16 10 -5 13 -9 13 -22 3 -9 -7 -13 -8
-9 -2 7 11 -15 39 -51 63 -11 8 -23 25 -27 39 -3 13 -19 35 -34 48 -35 29 -47
84 -19 84 11 0 17 -7 16 -17 -3 -37 3 -49 32 -67 17 -9 28 -22 25 -27 -4 -5 1
-9 11 -9 13 0 15 6 11 30 -4 16 -2 32 3 35 18 11 10 25 -15 25 -13 0 -28 6
-32 13 -4 8 -24 28 -44 45 -34 30 -35 30 -48 10 -11 -18 -10 -19 8 -13 12 4
21 2 21 -4 0 -6 -4 -11 -10 -11 -5 0 -10 -9 -10 -19 0 -28 -14 -33 -33 -11
-11 13 -12 20 -4 23 7 3 1 13 -15 26 -34 27 -36 49 -5 61 20 8 9 15 -17 11
-16 -3 -45 31 -39 47 5 11 2 14 -9 10 -10 -4 -20 2 -28 17 -8 14 -18 21 -27
18 -17 -6 -71 48 -65 65 2 6 -5 26 -15 44 -10 18 -20 43 -23 55 -4 17 -8 20
-22 12z m6 -34 c-6 -16 -24 -21 -24 -7 0 11 11 22 21 22 5 0 6 -7 3 -15z m-19
-35 c-6 -9 1 -13 43 -26 7 -2 10 -9 6 -15 -4 -8 -9 -7 -15 2 -7 11 -11 10 -22
-5 -14 -19 -15 -19 -25 1 -6 11 -8 23 -4 27 3 4 0 11 -8 16 -12 8 -10 10 8 10
13 0 20 -4 17 -10z m65 -80 c11 -6 22 -26 26 -46 4 -24 16 -42 40 -58 26 -17
31 -25 22 -34 -9 -9 -9 -12 1 -12 7 0 10 -4 6 -10 -3 -5 3 -18 15 -30 21 -21
26 -40 12 -40 -5 0 -15 11 -22 25 -7 14 -19 25 -26 25 -7 0 -11 12 -10 31 0
19 -5 34 -12 37 -10 3 -13 -6 -11 -34 2 -22 8 -42 13 -46 15 -10 2 -20 -17
-12 -12 4 -15 14 -11 33 5 22 -1 34 -25 59 -33 33 -38 48 -18 55 10 3 10 9 0
26 -23 38 -17 49 17 31z m-45 -66 c0 -10 4 -25 9 -32 7 -11 4 -11 -13 0 -23
14 -30 63 -8 55 6 -2 12 -12 12 -23z m-101 -59 c-4 -8 -11 -15 -16 -15 -6 0
-5 6 2 15 7 8 14 15 16 15 2 0 1 -7 -2 -15z m189 -106 c4 -16 3 -18 -9 -8 -7
6 -11 15 -8 20 8 13 11 11 17 -12z m-88 -19 c18 -8 17 -9 -7 -9 -16 -1 -28 4
-28 9 0 12 8 12 35 0z m215 -15 c6 -8 8 -20 4 -26 -5 -9 -11 -7 -21 6 -23 33
-9 51 17 20z m-250 -55 c0 -5 -2 -10 -4 -10 -3 0 -8 5 -11 10 -3 6 -1 10 4 10
6 0 11 -4 11 -10z m-50 -14 c0 -3 -4 -8 -10 -11 -5 -3 -10 -1 -10 4 0 6 5 11
10 11 6 0 10 -2 10 -4z m34 -17 c-3 -5 -10 -7 -15 -3 -5 3 -7 10 -3 15 3 5 10
7 15 3 5 -3 7 -10 3 -15z m37 -47 c6 -17 5 -22 -7 -22 -8 0 -13 4 -9 9 3 5 1
12 -5 16 -14 9 -13 28 2 23 6 -2 15 -14 19 -26z m72 -16 c3 -8 0 -19 -7 -25
-11 -9 -15 -6 -18 14 -6 27 16 36 25 11z m527 -11 c0 -8 -9 -15 -20 -15 -11 0
-20 7 -20 15 0 8 9 15 20 15 11 0 20 -7 20 -15z m-500 -40 c0 -8 -3 -16 -7
-18 -5 -3 -8 5 -8 18 0 13 3 21 8 18 4 -2 7 -10 7 -18z m-63 -53 c4 -19 10
-22 29 -18 22 6 24 3 22 -23 -2 -28 -3 -28 -25 -14 -13 9 -23 19 -23 25 0 5
-12 20 -26 33 -18 17 -24 30 -19 42 6 17 7 17 21 -2 8 -11 17 -30 21 -43z
m633 42 c0 -8 -5 -12 -10 -9 -6 4 -8 11 -5 16 9 14 15 11 15 -7z m-41 -23 c11
-11 17 -22 14 -25 -8 -8 -43 17 -43 31 0 18 7 16 29 -6z m-471 -23 c7 -7 12
-8 12 -3 0 5 7 -1 16 -13 9 -13 13 -26 9 -30 -4 -4 -14 3 -22 16 -19 27 -48
31 -38 5 5 -14 4 -15 -6 -6 -7 7 -14 20 -15 28 -3 18 27 20 44 3z m82 -58 c0
-5 -7 -10 -15 -10 -8 0 -15 5 -15 10 0 6 7 10 15 10 8 0 15 -4 15 -10z m-38
-32 c3 -7 3 -19 1 -26 -6 -16 -33 4 -33 24 0 17 26 18 32 2z m90 -23 c10 -19
13 -35 8 -35 -6 0 -10 7 -10 15 0 8 -11 17 -25 21 -20 5 -23 9 -14 20 17 20
22 17 41 -21z m142 -40 c-4 -8 -8 -15 -10 -15 -2 0 -4 7 -4 15 0 8 4 15 10 15
5 0 7 -7 4 -15z m346 5 c0 -5 -7 -7 -15 -4 -8 4 -15 8 -15 10 0 2 7 4 15 4 8
0 15 -4 15 -10z m-457 -37 c-7 -3 -13 -12 -13 -20 0 -13 -3 -13 -15 -3 -8 7
-15 16 -15 21 0 5 7 9 15 9 8 0 15 5 15 12 0 9 3 8 13 -1 10 -11 10 -14 0 -18z
m122 -33 c-3 -5 9 -16 27 -24 l33 -14 -32 -1 c-17 -1 -34 -7 -37 -13 -3 -9
-11 -6 -25 11 -23 25 -31 65 -9 43 13 -13 29 -16 27 -4 -3 16 2 23 11 17 6 -4
8 -10 5 -15z m563 -3 c5 -23 -10 -21 -26 4 -12 18 -11 20 5 17 10 -2 19 -11
21 -21z m-60 -8 c7 -12 11 -23 9 -26 -6 -6 -47 28 -47 39 0 16 26 7 38 -13z
m-563 -9 c3 -5 -1 -10 -9 -10 -8 0 -18 5 -21 10 -3 6 1 10 9 10 8 0 18 -4 21
-10z m509 -45 c4 -26 14 -49 24 -55 9 -5 13 -9 7 -10 -19 0 -35 16 -38 39 -2
12 -9 26 -16 31 -10 5 -10 9 -2 14 6 4 9 12 6 17 -4 5 -2 9 3 9 5 0 13 -20 16
-45z m-495 1 c8 -13 11 -30 8 -38 -3 -8 -9 -4 -17 14 -8 18 -18 24 -28 20 -15
-5 -15 -4 -2 11 20 22 24 21 39 -7z m101 -26 c0 -6 -7 -10 -15 -10 -8 0 -15 2
-15 4 0 2 -3 12 -7 21 -5 15 -3 16 15 6 12 -7 22 -16 22 -21z m746 -53 c1 -9
-2 -15 -7 -11 -5 3 -9 -3 -10 -13 -1 -12 -3 -10 -8 7 -5 14 -6 29 -4 33 7 13
26 2 29 -16z m-806 -7 c0 -5 -4 -10 -10 -10 -5 0 -10 5 -10 10 0 6 5 10 10 10
6 0 10 -4 10 -10z m10 -40 c0 -5 -7 -10 -16 -10 -8 0 -12 5 -9 10 3 6 10 10
16 10 5 0 9 -4 9 -10z m324 -36 c3 -8 2 -12 -4 -9 -6 3 -10 10 -10 16 0 14 7
11 14 -7z m51 -3 c3 -5 1 -12 -5 -16 -5 -3 -10 1 -10 9 0 18 6 21 15 7z m185
0 c0 -6 -4 -12 -8 -15 -5 -3 -9 1 -9 9 0 8 4 15 9 15 4 0 8 -4 8 -9z m335 -31
c3 -5 -1 -10 -9 -10 -9 0 -16 5 -16 10 0 6 4 10 9 10 6 0 13 -4 16 -10z"/>
<path d="M1590 1191 c0 -6 4 -13 10 -16 6 -3 7 1 4 9 -7 18 -14 21 -14 7z"/>
<path d="M1863 1136 c-6 -7 -16 -29 -21 -48 -9 -34 -8 -35 15 -35 17 0 21 3
14 10 -16 16 -13 47 4 53 8 4 15 12 15 20 0 17 -11 17 -27 0z"/>
<path d="M1430 1060 c0 -11 5 -20 10 -20 6 0 10 9 10 20 0 11 -4 20 -10 20 -5
0 -10 -9 -10 -20z"/>
<path d="M1374 1039 c-3 -6 -1 -16 5 -22 8 -8 11 -5 11 11 0 24 -5 28 -16 11z"/>
<path d="M1600 1035 c0 -8 4 -15 10 -15 5 0 7 7 4 15 -4 8 -8 15 -10 15 -2 0
-4 -7 -4 -15z"/>
<path d="M1440 980 c0 -5 5 -10 11 -10 5 0 7 5 4 10 -3 6 -8 10 -11 10 -2 0
-4 -4 -4 -10z"/>
<path d="M1350 843 c0 -11 7 -27 16 -34 15 -12 16 -11 9 11 -10 35 -25 49 -25
23z"/>
<path d="M1452 808 c-19 -19 -14 -55 8 -61 17 -4 20 0 20 28 0 38 -11 50 -28
33z"/>
<path d="M3478 803 c7 -3 16 -2 19 1 4 3 -2 6 -13 5 -11 0 -14 -3 -6 -6z"/>
<path d="M1280 781 c0 -17 18 -21 24 -6 3 9 0 15 -9 15 -8 0 -15 -4 -15 -9z"/>
<path d="M6246 678 c-3 -34 -11 -67 -16 -72 -15 -15 -12 -66 3 -66 7 0 31 -13
53 -30 21 -16 43 -30 48 -30 16 0 154 -68 161 -79 3 -6 15 -11 26 -11 10 0 28
-9 38 -19 10 -10 33 -22 50 -26 17 -3 33 -11 36 -16 4 -5 19 -9 36 -9 16 0 29
-3 29 -8 0 -4 17 -16 38 -26 20 -10 44 -22 52 -26 9 -4 30 -11 47 -14 17 -4
51 -20 75 -35 24 -15 61 -31 81 -35 20 -4 37 -10 37 -15 0 -4 6 -8 13 -8 6 -1
37 -11 67 -22 30 -12 64 -21 75 -21 12 0 31 -9 43 -20 12 -11 34 -20 51 -20
16 0 31 -5 33 -11 2 -5 24 -13 48 -16 25 -3 62 -14 82 -24 33 -17 63 -19 260
-19 l223 0 -55 30 c-30 16 -71 37 -90 47 -19 10 -36 21 -38 26 -2 4 -12 7 -23
7 -10 0 -52 15 -92 34 -40 18 -89 37 -107 41 -19 4 -44 13 -55 20 -11 7 -45
20 -75 30 -30 10 -69 24 -87 32 -17 7 -35 13 -40 13 -5 0 -28 9 -51 20 -22 11
-48 20 -57 20 -8 0 -47 16 -85 35 -38 19 -75 35 -81 35 -7 0 -45 16 -86 35
-41 19 -78 35 -84 35 -16 0 -112 42 -129 56 -8 7 -28 16 -45 20 -16 4 -55 22
-86 41 -32 18 -66 33 -77 33 -11 0 -25 7 -32 15 -7 8 -18 15 -25 15 -7 0 -23
9 -37 19 -13 11 -37 23 -52 27 -14 3 -32 14 -39 24 -6 9 -21 20 -33 24 -20 6
-22 2 -28 -56z"/>
<path d="M1492 718 c3 -7 13 -15 24 -17 16 -3 17 -1 5 13 -16 19 -34 21 -29 4z"/>
<path d="M1415 680 c9 -41 13 -50 25 -50 11 0 -6 60 -21 74 -8 8 -9 2 -4 -24z"/>
<path d="M2090 681 c0 -11 5 -23 10 -26 6 -4 10 5 10 19 0 14 -4 26 -10 26 -5
0 -10 -9 -10 -19z"/>
<path d="M1516 674 c-5 -12 -10 -13 -19 -6 -10 9 -13 4 -14 -23 -1 -28 3 -35
18 -35 11 0 19 6 17 13 -1 6 2 22 6 35 9 27 2 41 -8 16z"/>
<path d="M5397 663 c-13 -12 -7 -23 13 -23 11 0 20 7 20 15 0 15 -21 21 -33 8z"/>
<path d="M1218 643 c7 -3 16 -2 19 1 4 3 -2 6 -13 5 -11 0 -14 -3 -6 -6z"/>
<path d="M1535 630 c3 -5 8 -10 11 -10 2 0 4 5 4 10 0 6 -5 10 -11 10 -5 0 -7
-4 -4 -10z"/>
<path d="M1460 580 c0 -5 5 -10 10 -10 6 0 10 5 10 10 0 6 -4 10 -10 10 -5 0
-10 -4 -10 -10z"/>
<path d="M1148 563 c7 -3 16 -2 19 1 4 3 -2 6 -13 5 -11 0 -14 -3 -6 -6z"/>
<path d="M1466 541 c-3 -5 -3 -17 0 -28 6 -16 5 -16 -9 2 -8 11 -19 16 -24 12
-9 -10 44 -60 56 -53 9 6 2 64 -9 71 -5 3 -11 1 -14 -4z"/>
<path d="M1536 503 c9 -36 14 -42 14 -15 0 45 34 20 38 -28 1 -20 11 -42 22
-52 11 -9 20 -20 20 -25 0 -5 11 -20 25 -33 l25 -23 0 26 c0 17 -7 28 -20 32
-11 3 -20 13 -20 21 0 21 -40 107 -54 116 -6 4 -21 8 -34 8 -19 0 -22 -4 -16
-27z"/>
<path d="M2448 512 c-4 -12 -2 -22 2 -22 5 0 11 -8 13 -17 4 -15 5 -15 5 2 0
11 -3 29 -7 39 -7 19 -8 19 -13 -2z"/>
<path d="M5171 487 c-13 -21 -12 -21 5 -5 10 10 16 20 13 22 -3 3 -11 -5 -18
-17z"/>
<path d="M1230 471 c0 -5 -12 -12 -26 -15 -40 -10 -22 -18 24 -10 35 5 39 8
27 20 -16 16 -25 18 -25 5z"/>
<path d="M788 463 c7 -3 16 -2 19 1 4 3 -2 6 -13 5 -11 0 -14 -3 -6 -6z"/>
<path d="M901 456 c12 -10 59 -15 59 -6 0 5 -14 10 -32 10 -17 0 -29 -2 -27
-4z"/>
<path d="M1537 443 c-5 -8 26 -53 36 -53 3 0 2 12 -2 27 -7 27 -25 41 -34 26z"/>
<path d="M1506 431 c-4 -7 -5 -15 -2 -18 9 -9 19 4 14 18 -4 11 -6 11 -12 0z"/>
<path d="M1381 414 c0 -11 3 -14 6 -6 3 7 2 16 -1 19 -3 4 -6 -2 -5 -13z"/>
<path d="M1110 401 c0 -5 -10 -12 -22 -14 -16 -4 -14 -5 6 -4 27 2 52 27 27
27 -6 0 -11 -4 -11 -9z"/>
<path d="M1526 402 c-2 -4 -1 -14 5 -22 7 -12 9 -10 9 8 0 23 -5 28 -14 14z"/>
<path d="M1000 370 c-8 -5 -12 -11 -9 -14 2 -3 11 -1 19 4 8 5 12 11 9 14 -2
3 -11 1 -19 -4z"/>
<path d="M520 360 c-8 -6 -25 -10 -37 -10 -13 0 -23 -4 -23 -10 0 -15 42 -11
64 5 22 17 18 29 -4 15z"/>
<path d="M4955 344 c-6 -2 -9 -20 -7 -39 l4 -35 19 22 c28 32 17 66 -16 52z"/>
<path d="M2691 323 c26 -33 34 -40 45 -36 22 7 -9 53 -35 53 -21 0 -22 -2 -10
-17z"/>
<path d="M6268 333 c7 -3 16 -2 19 1 4 3 -2 6 -13 5 -11 0 -14 -3 -6 -6z"/>
<path d="M748 323 c6 -2 18 -2 25 0 6 3 1 5 -13 5 -14 0 -19 -2 -12 -5z"/>
<path d="M460 305 c0 -8 4 -15 10 -15 5 0 7 7 4 15 -4 8 -8 15 -10 15 -2 0 -4
-7 -4 -15z"/>
<path d="M1585 310 c-9 -14 3 -30 22 -30 10 0 14 -6 10 -20 -6 -24 4 -32 23
-19 10 6 11 9 3 9 -7 0 -13 5 -13 11 0 19 -38 60 -45 49z"/>
<path d="M2760 309 c0 -5 5 -7 10 -4 6 3 10 8 10 11 0 2 -4 4 -10 4 -5 0 -10
-5 -10 -11z"/>
<path d="M4900 309 c0 -5 5 -7 10 -4 6 3 10 8 10 11 0 2 -4 4 -10 4 -5 0 -10
-5 -10 -11z"/>
<path d="M1370 296 c0 -19 28 -83 38 -90 20 -12 20 8 2 34 -11 16 -20 38 -20
49 0 12 -4 21 -10 21 -5 0 -10 -6 -10 -14z"/>
<path d="M1496 297 c3 -10 9 -15 12 -12 3 3 0 11 -7 18 -10 9 -11 8 -5 -6z"/>
<path d="M4878 282 c-28 -6 -22 -32 7 -32 14 0 25 3 25 8 0 16 -16 28 -32 24z"/>
<path d="M1700 262 c0 -12 7 -25 15 -28 11 -5 12 -10 4 -26 -9 -17 -8 -19 8
-16 27 5 26 29 -2 63 -23 29 -24 29 -25 7z"/>
<path d="M1845 221 c-7 -32 -20 -40 -28 -18 -10 24 -7 -11 3 -37 12 -32 32
-34 28 -3 -2 16 3 23 20 25 27 4 28 23 3 46 -18 17 -19 16 -26 -13z"/>
<path d="M4880 224 c0 -8 5 -12 10 -9 6 4 8 11 5 16 -9 14 -15 11 -15 -7z"/>
<path d="M4767 187 c-19 -21 -24 -33 -16 -36 7 -2 18 4 24 12 7 9 14 14 17 11
3 -2 6 7 6 21 0 14 -1 25 -2 24 0 0 -14 -15 -29 -32z"/>
<path d="M1156 194 c-17 -12 -17 -14 -4 -14 9 0 20 5 23 11 11 17 2 18 -19 3z"/>
<path d="M1950 196 c0 -9 7 -16 16 -16 17 0 14 22 -4 28 -7 2 -12 -3 -12 -12z"/>
<path d="M1596 181 c-4 -6 -2 -11 3 -11 6 0 11 -9 11 -20 0 -11 4 -20 10 -20
12 0 7 37 -7 51 -8 8 -13 8 -17 0z"/>
<path d="M1185 170 c3 -5 13 -10 21 -10 8 0 14 5 14 10 0 6 -9 10 -21 10 -11
0 -17 -4 -14 -10z"/>
<path d="M1416 164 c-3 -8 -2 -24 4 -34 7 -14 5 -19 -10 -23 -28 -7 -25 -24 5
-29 14 -3 25 -1 25 4 0 5 5 6 11 3 6 -4 9 -21 7 -38 -2 -20 2 -32 9 -32 6 0
15 -3 19 -7 13 -14 32 -8 36 9 2 10 -5 22 -16 28 -10 6 -30 38 -44 73 -26 64
-36 73 -46 46z"/>
<path d="M1660 170 c0 -5 5 -10 10 -10 6 0 10 5 10 10 0 6 -4 10 -10 10 -5 0
-10 -4 -10 -10z"/>
<path d="M1738 155 c-3 -14 -1 -28 3 -31 5 -3 9 9 9 25 0 38 -6 40 -12 6z"/>
<path d="M825 160 c-7 -12 12 -12 40 0 18 8 17 9 -7 9 -15 1 -30 -3 -33 -9z"/>
<path d="M1700 155 c0 -8 4 -15 10 -15 5 0 7 7 4 15 -4 8 -8 15 -10 15 -2 0
-4 -7 -4 -15z"/>
<path d="M4185 161 c-6 -11 9 -23 19 -14 9 9 7 23 -3 23 -6 0 -12 -4 -16 -9z"/>
<path d="M3858 148 c-40 -11 -51 -28 -18 -28 11 0 20 5 20 10 0 23 19 7 25
-21 5 -23 10 -28 18 -20 9 9 8 14 -2 20 -8 5 -12 18 -8 30 3 12 4 21 4 20 -1
-1 -19 -6 -39 -11z"/>
<path d="M1555 130 c3 -5 11 -10 16 -10 6 0 7 5 4 10 -3 6 -11 10 -16 10 -6 0
-7 -4 -4 -10z"/>
<path d="M4321 114 c0 -11 3 -14 6 -6 3 7 2 16 -1 19 -3 4 -6 -2 -5 -13z"/>
<path d="M3732 96 c-36 -18 -41 -24 -30 -34 14 -11 18 -11 98 16 12 4 12 6 -2
9 -10 3 -18 8 -18 13 0 5 8 11 18 13 14 4 14 5 -3 5 -11 1 -39 -9 -63 -22z"/>
<path d="M3968 113 c7 -3 16 -2 19 1 4 3 -2 6 -13 5 -11 0 -14 -3 -6 -6z"/>
<path d="M4043 107 c0 -7 18 -13 39 -14 22 -2 38 2 38 8 0 6 -7 9 -15 5 -8 -3
-26 -1 -38 3 -16 7 -24 6 -24 -2z"/>
<path d="M1640 97 c0 -9 -4 -17 -10 -17 -5 0 -10 -10 -10 -22 1 -22 1 -22 12
-3 6 11 16 23 22 27 8 5 7 11 -2 20 -9 9 -12 9 -12 -5z"/>
<path d="M1759 103 c-3 -19 3 -59 10 -66 4 -4 8 11 9 33 2 23 -2 40 -8 40 -5
0 -10 -3 -11 -7z"/>
<path d="M1900 95 c0 -8 4 -15 8 -15 5 0 9 7 9 15 0 8 -4 15 -9 15 -4 0 -8 -7
-8 -15z"/>
<path d="M3835 100 c27 -12 35 -12 35 0 0 6 -12 10 -27 9 -25 0 -26 -1 -8 -9z"/>
<path d="M4260 94 c0 -8 5 -12 10 -9 6 4 8 11 5 16 -9 14 -15 11 -15 -7z"/>
<path d="M3155 89 c-4 -6 -13 -8 -21 -5 -7 3 -16 1 -19 -4 -7 -11 9 -13 43 -4
12 4 22 10 22 15 0 12 -17 11 -25 -2z"/>
<path d="M4615 90 c3 -5 10 -10 16 -10 5 0 9 5 9 10 0 6 -7 10 -16 10 -8 0
-12 -4 -9 -10z"/>
<path d="M1350 80 c0 -6 7 -10 15 -10 8 0 15 2 15 4 0 2 -7 6 -15 10 -8 3 -15
1 -15 -4z"/>
<path d="M1975 60 c2 -37 25 -66 25 -32 0 15 5 20 15 16 21 -8 19 9 -3 29 -27
25 -39 21 -37 -13z"/>
<path d="M1250 58 c0 -12 1 -19 3 -17 1 2 9 12 16 22 12 14 11 17 -3 17 -10 0
-16 -8 -16 -22z"/>
<path d="M3609 60 c-17 -14 -20 -19 -9 -20 12 0 13 -2 1 -9 -8 -5 -28 -5 -48
1 -28 7 -40 6 -61 -9 -26 -18 -22 -18 242 -21 240 -2 272 -1 285 14 15 15 14
16 -9 9 -60 -17 -80 -17 -86 -1 -7 18 -39 22 -50 5 -3 -6 -17 -8 -30 -5 -14 4
-24 2 -24 -4 0 -5 -16 -10 -35 -10 -19 0 -35 5 -35 10 0 6 -9 10 -19 10 -11 0
-28 11 -39 25 -24 30 -52 32 -83 5z m71 -10 c0 -5 -12 -10 -26 -10 -14 0 -23
4 -19 10 3 6 15 10 26 10 10 0 19 -4 19 -10z"/>
<path d="M4063 68 c-8 -9 -7 -16 2 -25 10 -10 15 -9 19 4 9 22 -8 37 -21 21z"/>
<path d="M416 62 c-3 -5 1 -9 9 -9 8 0 15 4 15 9 0 10 -17 10 -24 0z"/>
<path d="M3080 59 c0 -5 5 -7 10 -4 6 3 10 8 10 11 0 2 -4 4 -10 4 -5 0 -10
-5 -10 -11z"/>
<path d="M1900 55 c0 -2 9 -9 20 -15 16 -9 18 -8 14 5 -5 13 -34 22 -34 10z"/>
<path d="M4220 51 c0 -6 4 -13 10 -16 6 -3 7 1 4 9 -7 18 -14 21 -14 7z"/>
<path d="M1355 25 l-30 -13 33 -1 c17 -1 32 3 32 8 0 5 12 12 28 14 27 4 27 4
-3 5 -16 1 -43 -5 -60 -13z"/>
<path d="M1048 3 c7 -3 16 -2 19 1 4 3 -2 6 -13 5 -11 0 -14 -3 -6 -6z"/>
<path d="M4118 3 c6 -2 18 -2 25 0 6 3 1 5 -13 5 -14 0 -19 -2 -12 -5z"/>
</g>
</svg>
