<?xml version="1.0" encoding="UTF-8"?>
<svg xmlns="http://www.w3.org/2000/svg" xmlns:xlink="http://www.w3.org/1999/xlink" width="25px" height="25px" viewBox="0 0 25 25" version="1.1">
<g id="surface1">
<path style=" stroke:none;fill-rule:nonzero;fill:rgb(89.411765%,30.19608%,14.901961%);fill-opacity:1;" d="M 24.957031 4.902344 L 22.6875 22.929688 L 12.484375 24.9375 L 2.3125 22.933594 L 0.0429688 4.902344 Z M 24.957031 4.902344 "/>
<path style=" stroke:none;fill-rule:nonzero;fill:rgb(94.509804%,39.607844%,16.078432%);fill-opacity:1;" d="M 12.5 23.402344 L 20.742188 21.78125 L 22.683594 6.375 L 12.5 6.375 Z M 12.5 23.402344 "/>
<path style=" stroke:none;fill-rule:nonzero;fill:rgb(92.156863%,92.156863%,92.156863%);fill-opacity:1;" d="M 8.089844 10.796875 L 12.5 10.796875 L 12.5 8.585938 L 4.679688 8.585938 L 4.753906 9.179688 L 5.519531 15.273438 L 12.5 15.273438 L 12.5 13.0625 L 8.371094 13.0625 Z M 8.089844 10.796875 "/>
<path style=" stroke:none;fill-rule:nonzero;fill:rgb(92.156863%,92.156863%,92.156863%);fill-opacity:1;" d="M 8.789062 16.382812 L 5.660156 16.382812 L 6.097656 19.855469 L 12.484375 21.113281 L 12.5 21.109375 L 12.5 18.808594 L 12.488281 18.808594 L 9.011719 18.144531 Z M 8.789062 16.382812 "/>
<path style=" stroke:none;fill-rule:nonzero;fill:rgb(0%,0%,0%);fill-opacity:1;" d="M 2.363281 0 L 3.945312 0 L 3.945312 1.109375 L 5.394531 1.109375 L 5.394531 0 L 6.980469 0 L 6.980469 3.363281 L 5.394531 3.363281 L 5.394531 2.238281 L 3.945312 2.238281 L 3.945312 3.363281 L 2.363281 3.363281 Z M 2.363281 0 "/>
<path style=" stroke:none;fill-rule:nonzero;fill:rgb(0%,0%,0%);fill-opacity:1;" d="M 9.066406 1.113281 L 7.671875 1.113281 L 7.671875 0 L 12.046875 0 L 12.046875 1.113281 L 10.652344 1.113281 L 10.652344 3.363281 L 9.066406 3.363281 Z M 9.066406 1.113281 "/>
<path style=" stroke:none;fill-rule:nonzero;fill:rgb(0%,0%,0%);fill-opacity:1;" d="M 12.742188 0 L 14.394531 0 L 15.410156 1.179688 L 16.425781 0 L 18.078125 0 L 18.078125 3.363281 L 16.5 3.363281 L 16.5 1.695312 L 15.410156 2.890625 L 15.382812 2.890625 L 14.292969 1.695312 L 14.292969 3.363281 L 12.742188 3.363281 Z M 12.742188 0 "/>
<path style=" stroke:none;fill-rule:nonzero;fill:rgb(0%,0%,0%);fill-opacity:1;" d="M 18.867188 0 L 20.453125 0 L 20.453125 2.25 L 22.683594 2.25 L 22.683594 3.363281 L 18.867188 3.363281 Z M 18.867188 0 "/>
<path style=" stroke:none;fill-rule:nonzero;fill:rgb(100%,100%,100%);fill-opacity:1;" d="M 12.488281 15.273438 L 16.328125 15.273438 L 15.96875 18.144531 L 12.488281 18.808594 L 12.488281 21.109375 L 18.882812 19.855469 L 18.929688 19.480469 L 19.664062 13.65625 L 19.738281 13.0625 L 12.488281 13.0625 Z M 12.488281 15.273438 "/>
<path style=" stroke:none;fill-rule:nonzero;fill:rgb(100%,100%,100%);fill-opacity:1;" d="M 12.488281 10.792969 L 12.488281 10.796875 L 20.023438 10.796875 L 20.085938 10.300781 L 20.226562 9.179688 L 20.300781 8.585938 L 12.488281 8.585938 Z M 12.488281 10.792969 "/>
</g>
</svg>
