<?xml version="1.0" encoding="UTF-8"?>
<svg xmlns="http://www.w3.org/2000/svg" xmlns:xlink="http://www.w3.org/1999/xlink" width="25px" height="25px" viewBox="0 0 25 25" version="1.1">
<defs>
<radialGradient id="radial0" gradientUnits="userSpaceOnUse" cx="0" cy="0" fx="0" fy="0" r="1" gradientTransform="matrix(16.414328,0,0,16.414328,7.505078,8.236133)">
<stop offset="0" style="stop-color:rgb(68.235294%,69.803922%,83.529412%);stop-opacity:1;"/>
<stop offset="0.3" style="stop-color:rgb(68.235294%,69.803922%,83.529412%);stop-opacity:1;"/>
<stop offset="0.75" style="stop-color:rgb(28.235294%,29.803922%,53.72549%);stop-opacity:1;"/>
<stop offset="1" style="stop-color:rgb(28.235294%,29.803922%,53.72549%);stop-opacity:1;"/>
</radialGradient>
</defs>
<g id="surface1">
<path style=" stroke:none;fill-rule:nonzero;fill:url(#radial0);" d="M 0 12.5 C 0 16.132812 5.597656 19.074219 12.5 19.074219 C 19.402344 19.074219 25 16.132812 25 12.5 C 25 8.867188 19.402344 5.925781 12.5 5.925781 C 5.597656 5.925781 0 8.867188 0 12.5 Z M 0 12.5 "/>
<path style=" stroke:none;fill-rule:nonzero;fill:rgb(46.666667%,48.235294%,70.19608%);fill-opacity:1;" d="M 12.5 18.585938 C 19.132812 18.585938 24.511719 15.863281 24.511719 12.5 C 24.511719 9.136719 19.132812 6.414062 12.5 6.414062 C 5.867188 6.414062 0.488281 9.136719 0.488281 12.5 C 0.488281 15.863281 5.867188 18.585938 12.5 18.585938 Z M 12.5 18.585938 "/>
<path style=" stroke:none;fill-rule:nonzero;fill:rgb(0%,0%,0%);fill-opacity:1;" d="M 6.792969 13.253906 C 7.335938 13.253906 7.742188 13.152344 8 12.957031 C 8.257812 12.757812 8.433594 12.417969 8.523438 11.945312 C 8.609375 11.5 8.578125 11.191406 8.425781 11.023438 C 8.273438 10.855469 7.941406 10.769531 7.4375 10.769531 L 6.566406 10.769531 L 6.082031 13.253906 Z M 3.941406 16.316406 C 3.898438 16.316406 3.859375 16.300781 3.835938 16.269531 C 3.808594 16.238281 3.800781 16.195312 3.808594 16.15625 L 5.085938 9.566406 C 5.101562 9.503906 5.15625 9.457031 5.21875 9.457031 L 7.980469 9.457031 C 8.847656 9.457031 9.496094 9.691406 9.902344 10.15625 C 10.308594 10.625 10.433594 11.277344 10.273438 12.097656 C 10.210938 12.433594 10.097656 12.742188 9.941406 13.019531 C 9.78125 13.304688 9.574219 13.566406 9.332031 13.785156 C 9.03125 14.066406 8.695312 14.269531 8.328125 14.386719 C 7.964844 14.507812 7.5 14.566406 6.945312 14.566406 L 5.828125 14.566406 L 5.507812 16.207031 C 5.496094 16.273438 5.441406 16.316406 5.375 16.316406 Z M 3.941406 16.316406 "/>
<path style=" stroke:none;fill-rule:nonzero;fill:rgb(100%,100%,100%);fill-opacity:1;" d="M 6.679688 10.902344 L 7.4375 10.902344 C 8.042969 10.902344 8.253906 11.035156 8.328125 11.117188 C 8.445312 11.246094 8.46875 11.527344 8.390625 11.917969 C 8.304688 12.359375 8.148438 12.671875 7.917969 12.847656 C 7.6875 13.027344 7.304688 13.117188 6.792969 13.117188 L 6.246094 13.117188 Z M 7.980469 9.320312 L 5.222656 9.320312 C 5.089844 9.320312 4.980469 9.414062 4.953125 9.539062 L 3.675781 16.128906 C 3.660156 16.210938 3.679688 16.292969 3.730469 16.355469 C 3.78125 16.417969 3.859375 16.453125 3.941406 16.453125 L 5.375 16.453125 C 5.503906 16.453125 5.617188 16.359375 5.640625 16.234375 L 5.941406 14.703125 L 6.945312 14.703125 C 7.515625 14.703125 7.992188 14.640625 8.367188 14.515625 C 8.753906 14.390625 9.109375 14.179688 9.425781 13.882812 C 9.679688 13.652344 9.894531 13.382812 10.0625 13.085938 C 10.222656 12.796875 10.339844 12.472656 10.40625 12.125 C 10.574219 11.257812 10.4375 10.566406 10.003906 10.066406 C 9.570312 9.574219 8.890625 9.320312 7.980469 9.320312 Z M 5.917969 13.390625 L 6.792969 13.390625 C 7.371094 13.390625 7.800781 13.28125 8.085938 13.0625 C 8.367188 12.84375 8.558594 12.480469 8.660156 11.972656 C 8.753906 11.480469 8.710938 11.136719 8.527344 10.933594 C 8.347656 10.734375 7.984375 10.632812 7.4375 10.632812 L 6.453125 10.632812 L 5.917969 13.390625 M 7.980469 9.59375 C 8.8125 9.59375 9.417969 9.808594 9.796875 10.246094 C 10.179688 10.683594 10.292969 11.289062 10.140625 12.070312 C 10.078125 12.394531 9.972656 12.6875 9.824219 12.953125 C 9.675781 13.222656 9.480469 13.464844 9.242188 13.6875 C 8.953125 13.953125 8.636719 14.144531 8.285156 14.257812 C 7.933594 14.375 7.488281 14.429688 6.945312 14.429688 L 5.714844 14.429688 L 5.375 16.183594 L 3.941406 16.183594 L 5.222656 9.59375 L 7.980469 9.59375 "/>
<path style=" stroke:none;fill-rule:nonzero;fill:rgb(0%,0%,0%);fill-opacity:1;" d="M 13.566406 14.566406 C 13.527344 14.566406 13.488281 14.546875 13.460938 14.515625 C 13.4375 14.484375 13.425781 14.445312 13.433594 14.40625 L 14 11.488281 C 14.054688 11.210938 14.039062 11.011719 13.960938 10.929688 C 13.914062 10.875 13.769531 10.789062 13.347656 10.789062 L 12.320312 10.789062 L 11.609375 14.457031 C 11.597656 14.519531 11.539062 14.566406 11.476562 14.566406 L 10.050781 14.566406 C 10.011719 14.566406 9.972656 14.546875 9.945312 14.515625 C 9.921875 14.484375 9.910156 14.445312 9.917969 14.40625 L 11.199219 7.816406 C 11.210938 7.75 11.265625 7.703125 11.332031 7.707031 L 12.753906 7.707031 C 12.796875 7.703125 12.835938 7.722656 12.859375 7.753906 C 12.886719 7.785156 12.898438 7.828125 12.890625 7.867188 L 12.582031 9.457031 L 13.683594 9.457031 C 14.527344 9.457031 15.097656 9.605469 15.429688 9.910156 C 15.765625 10.222656 15.871094 10.71875 15.742188 11.390625 L 15.144531 14.457031 C 15.132812 14.519531 15.078125 14.566406 15.011719 14.566406 Z M 13.566406 14.566406 "/>
<path style=" stroke:none;fill-rule:nonzero;fill:rgb(100%,100%,100%);fill-opacity:1;" d="M 12.757812 7.570312 L 11.332031 7.570312 C 11.203125 7.570312 11.089844 7.660156 11.066406 7.789062 L 9.785156 14.378906 C 9.769531 14.457031 9.789062 14.539062 9.839844 14.601562 C 9.894531 14.664062 9.96875 14.703125 10.050781 14.703125 L 11.476562 14.703125 C 11.605469 14.703125 11.714844 14.609375 11.742188 14.480469 L 12.433594 10.925781 L 13.347656 10.925781 C 13.769531 10.925781 13.859375 11.015625 13.863281 11.019531 C 13.886719 11.046875 13.921875 11.175781 13.867188 11.464844 L 13.300781 14.378906 C 13.285156 14.457031 13.304688 14.539062 13.355469 14.601562 C 13.410156 14.664062 13.484375 14.703125 13.566406 14.703125 L 15.011719 14.703125 C 15.144531 14.703125 15.253906 14.609375 15.28125 14.480469 L 15.875 11.414062 C 16.015625 10.695312 15.894531 10.15625 15.519531 9.8125 C 15.160156 9.480469 14.5625 9.320312 13.683594 9.320312 L 12.746094 9.320312 L 13.023438 7.894531 C 13.039062 7.8125 13.015625 7.730469 12.964844 7.667969 C 12.914062 7.605469 12.835938 7.570312 12.757812 7.570312 Z M 12.757812 7.839844 L 12.414062 9.59375 L 13.683594 9.59375 C 14.484375 9.59375 15.03125 9.730469 15.335938 10.011719 C 15.640625 10.289062 15.730469 10.738281 15.609375 11.363281 L 15.011719 14.429688 L 13.566406 14.429688 L 14.132812 11.515625 C 14.199219 11.183594 14.171875 10.957031 14.0625 10.835938 C 13.949219 10.714844 13.710938 10.65625 13.347656 10.65625 L 12.207031 10.65625 L 11.476562 14.429688 L 10.050781 14.429688 L 11.332031 7.839844 Z M 12.757812 7.839844 "/>
<path style=" stroke:none;fill-rule:nonzero;fill:rgb(0%,0%,0%);fill-opacity:1;" d="M 17.996094 13.253906 C 18.539062 13.253906 18.949219 13.152344 19.207031 12.957031 C 19.460938 12.757812 19.636719 12.417969 19.730469 11.945312 C 19.816406 11.5 19.78125 11.191406 19.632812 11.023438 C 19.476562 10.855469 19.144531 10.769531 18.640625 10.769531 L 17.769531 10.769531 L 17.285156 13.253906 Z M 15.144531 16.316406 C 15.105469 16.316406 15.066406 16.300781 15.039062 16.269531 C 15.015625 16.238281 15.003906 16.195312 15.011719 16.15625 L 16.292969 9.566406 C 16.304688 9.503906 16.359375 9.457031 16.425781 9.457031 L 19.1875 9.457031 C 20.054688 9.457031 20.699219 9.691406 21.105469 10.15625 C 21.511719 10.625 21.640625 11.277344 21.480469 12.097656 C 21.417969 12.421875 21.304688 12.730469 21.148438 13.019531 C 20.984375 13.304688 20.78125 13.566406 20.535156 13.785156 C 20.238281 14.066406 19.898438 14.269531 19.53125 14.386719 C 19.167969 14.507812 18.703125 14.566406 18.148438 14.566406 L 17.03125 14.566406 L 16.714844 16.207031 C 16.699219 16.273438 16.644531 16.316406 16.578125 16.316406 Z M 15.144531 16.316406 "/>
<path style=" stroke:none;fill-rule:nonzero;fill:rgb(100%,100%,100%);fill-opacity:1;" d="M 17.882812 10.902344 L 18.640625 10.902344 C 19.25 10.902344 19.460938 11.035156 19.53125 11.117188 C 19.648438 11.246094 19.671875 11.527344 19.597656 11.917969 C 19.511719 12.359375 19.351562 12.671875 19.121094 12.847656 C 18.890625 13.027344 18.511719 13.117188 17.996094 13.117188 L 17.453125 13.117188 Z M 19.183594 9.320312 L 16.425781 9.320312 C 16.296875 9.320312 16.183594 9.414062 16.160156 9.539062 L 14.878906 16.128906 C 14.863281 16.210938 14.882812 16.292969 14.933594 16.355469 C 14.988281 16.417969 15.0625 16.453125 15.144531 16.453125 L 16.578125 16.453125 C 16.710938 16.453125 16.820312 16.359375 16.847656 16.234375 L 17.144531 14.703125 L 18.148438 14.703125 C 18.71875 14.703125 19.199219 14.640625 19.574219 14.515625 C 19.960938 14.390625 20.316406 14.179688 20.628906 13.882812 C 20.882812 13.652344 21.097656 13.382812 21.265625 13.085938 C 21.429688 12.796875 21.542969 12.472656 21.613281 12.125 C 21.78125 11.257812 21.644531 10.566406 21.207031 10.066406 C 20.773438 9.574219 20.09375 9.320312 19.183594 9.320312 Z M 17.121094 13.390625 L 17.996094 13.390625 C 18.574219 13.390625 19.003906 13.28125 19.289062 13.0625 C 19.570312 12.84375 19.761719 12.480469 19.863281 11.972656 C 19.957031 11.480469 19.914062 11.136719 19.730469 10.933594 C 19.550781 10.734375 19.1875 10.632812 18.640625 10.632812 L 17.660156 10.632812 Z M 19.183594 9.59375 C 20.015625 9.59375 20.621094 9.808594 21.003906 10.246094 C 21.382812 10.683594 21.496094 11.289062 21.347656 12.070312 C 21.285156 12.394531 21.175781 12.6875 21.027344 12.953125 C 20.878906 13.222656 20.683594 13.464844 20.445312 13.6875 C 20.15625 13.953125 19.839844 14.144531 19.488281 14.257812 C 19.140625 14.375 18.691406 14.429688 18.148438 14.429688 L 16.921875 14.429688 L 16.578125 16.183594 L 15.144531 16.183594 L 16.425781 9.59375 L 19.183594 9.59375 "/>
</g>
</svg>
