<?xml version="1.0" encoding="UTF-8"?>
<svg xmlns="http://www.w3.org/2000/svg" xmlns:xlink="http://www.w3.org/1999/xlink" width="25px" height="25px" viewBox="0 0 25 25" version="1.1">
<g id="surface1">
<path style=" stroke:none;fill-rule:evenodd;fill:rgb(98.431373%,47.843137%,14.117648%);fill-opacity:1;" d="M 12.492188 0 C 15.738281 0 18.984375 0 22.226562 0 C 22.636719 0 23.039062 0.0351562 23.429688 0.152344 C 24.277344 0.410156 24.726562 1.011719 24.902344 1.84375 C 24.96875 2.171875 24.988281 2.507812 24.992188 2.84375 C 24.996094 5.097656 25 7.355469 25 9.609375 C 25 13.714844 25 17.824219 24.992188 21.929688 C 24.992188 22.503906 24.960938 23.085938 24.675781 23.609375 C 24.355469 24.191406 23.921875 24.648438 23.261719 24.851562 C 23.144531 24.890625 23.019531 24.929688 22.898438 24.929688 C 22.617188 24.929688 22.34375 25 22.0625 25 C 15.707031 25 9.351562 25.003906 3 24.992188 C 2.480469 24.992188 1.957031 24.953125 1.464844 24.746094 C 1.367188 24.703125 1.269531 24.667969 1.183594 24.605469 C 0.558594 24.132812 0.132812 23.542969 0.0429688 22.746094 C 0.0117188 22.457031 0 22.171875 0 21.882812 C 0 15.492188 0 9.101562 0.00390625 2.710938 C 0.00390625 2.339844 0.0078125 1.964844 0.125 1.609375 C 0.429688 0.664062 1.101562 0.148438 2.09375 0.0429688 C 2.324219 0.0195312 2.554688 0.00390625 2.789062 0 C 6.023438 0 9.257812 0 12.492188 0 Z M 12.492188 0 "/>
<path style=" stroke:none;fill-rule:evenodd;fill:rgb(100%,100%,100%);fill-opacity:1;" d="M 12.574219 15.902344 C 12.503906 16.335938 12.453125 16.722656 12.296875 17.082031 C 11.566406 18.769531 10.320312 19.792969 8.453125 20 C 6.242188 20.242188 4.203125 18.886719 3.589844 16.785156 C 3.367188 16.023438 3.386719 15.25 3.46875 14.472656 C 3.554688 13.644531 3.800781 12.859375 4.183594 12.121094 C 4.238281 12.011719 4.238281 11.933594 4.171875 11.832031 C 3.582031 10.953125 3.351562 9.980469 3.433594 8.929688 C 3.480469 8.371094 3.617188 7.832031 3.871094 7.332031 C 4.625 5.859375 6.273438 4.609375 8.480469 4.820312 C 10.421875 5 12.21875 6.664062 12.5 8.53125 C 12.515625 8.625 12.539062 8.71875 12.570312 8.855469 C 12.617188 8.605469 12.652344 8.398438 12.695312 8.191406 C 13.058594 6.496094 14.730469 4.71875 17.105469 4.695312 C 19.511719 4.675781 21.292969 6.546875 21.628906 8.285156 C 21.773438 9.023438 21.746094 9.753906 21.628906 10.488281 C 21.511719 11.222656 21.296875 11.929688 20.980469 12.601562 C 20.910156 12.746094 20.917969 12.855469 21.007812 12.992188 C 21.523438 13.789062 21.753906 14.664062 21.722656 15.613281 C 21.664062 17.597656 20.25 19.375 18.304688 19.839844 C 15.589844 20.488281 13.511719 18.878906 12.8125 16.929688 C 12.695312 16.613281 12.644531 16.28125 12.574219 15.902344 Z M 17.507812 12.417969 C 17.535156 12.308594 17.621094 12.242188 17.6875 12.15625 C 18.367188 11.261719 18.722656 10.257812 18.644531 9.128906 C 18.585938 8.304688 17.902344 7.726562 17.078125 7.757812 C 16.25 7.785156 15.625 8.421875 15.613281 9.242188 C 15.613281 9.308594 15.617188 9.375 15.613281 9.441406 C 15.558594 10.316406 15.070312 10.796875 14.332031 10.851562 C 14.199219 10.859375 14.0625 10.871094 13.929688 10.871094 C 12.972656 10.875 12.015625 10.875 11.058594 10.875 C 10.640625 10.871094 10.226562 10.917969 9.828125 11.039062 C 7.96875 11.609375 6.886719 12.871094 6.527344 14.75 C 6.457031 15.121094 6.390625 15.507812 6.515625 15.886719 C 6.691406 16.4375 7.019531 16.84375 7.601562 16.980469 C 8.203125 17.121094 8.730469 16.964844 9.144531 16.496094 C 9.414062 16.191406 9.5 15.832031 9.519531 15.433594 C 9.574219 14.414062 10.132812 13.90625 11.066406 13.914062 C 12.496094 13.925781 13.925781 13.914062 15.355469 13.917969 C 15.609375 13.917969 15.613281 13.921875 15.613281 14.167969 C 15.617188 14.628906 15.601562 15.089844 15.621094 15.550781 C 15.648438 16.300781 16.316406 16.925781 17.085938 16.949219 C 17.882812 16.96875 18.589844 16.386719 18.644531 15.625 C 18.6875 14.964844 18.683594 14.300781 18.640625 13.640625 C 18.609375 13.128906 18.328125 12.765625 17.855469 12.550781 C 17.742188 12.503906 17.625 12.464844 17.507812 12.417969 Z M 8.539062 10.871094 C 8.847656 10.871094 9.097656 10.867188 9.347656 10.871094 C 9.472656 10.875 9.519531 10.820312 9.519531 10.699219 C 9.511719 10.222656 9.539062 9.742188 9.507812 9.261719 C 9.46875 8.632812 9.128906 8.179688 8.539062 7.949219 C 7.933594 7.714844 7.378906 7.847656 6.910156 8.292969 C 6.4375 8.738281 6.375 9.285156 6.542969 9.878906 C 6.691406 10.429688 7.050781 10.742188 7.613281 10.835938 C 7.9375 10.890625 8.265625 10.863281 8.539062 10.871094 Z M 8.539062 10.871094 "/>
</g>
</svg>
